<svg id="Amazon" xmlns="http://www.w3.org/2000/svg" xmlns:xlink="http://www.w3.org/1999/xlink" width="90.75" height="90.5" viewBox="0 0 90.75 90.5">
  <metadata><?xpacket begin="﻿" id="W5M0MpCehiHzreSzNTczkc9d"?>
<x:xmpmeta xmlns:x="adobe:ns:meta/" x:xmptk="Adobe XMP Core 5.6-c138 79.159824, 2016/09/14-01:09:01        ">
   <rdf:RDF xmlns:rdf="http://www.w3.org/1999/02/22-rdf-syntax-ns#">
      <rdf:Description rdf:about=""/>
   </rdf:RDF>
</x:xmpmeta>
                                                                                                    
                                                                                                    
                                                                                                    
                                                                                                    
                                                                                                    
                                                                                                    
                                                                                                    
                                                                                                    
                                                                                                    
                                                                                                    
                                                                                                    
                                                                                                    
                                                                                                    
                                                                                                    
                                                                                                    
                                                                                                    
                                                                                                    
                                                                                                    
                                                                                                    
                                                                                                    
                           
<?xpacket end="w"?></metadata>
<defs>
    <style>
      .cls-1 {
        fill: #fde67b;
        filter: url(#filter);
      }

      .cls-1, .cls-2 {
        fill-rule: evenodd;
      }

      .cls-2 {
        fill: #35363a;
      }
    </style>
    <filter id="filter" x="776" y="294.75" width="90.75" height="90.5" filterUnits="userSpaceOnUse">
      <feGaussianBlur result="blur" in="SourceAlpha"/>
      <feFlood result="flood" flood-color="#fff" flood-opacity="0.1"/>
      <feComposite result="composite" operator="out" in2="blur"/>
      <feOffset result="offset" dy="1"/>
      <feComposite result="composite-2" operator="in" in2="SourceAlpha"/>
      <feBlend result="blend" in2="SourceGraphic"/>
    </filter>
  </defs>
  <path id="container" class="cls-1" d="M821.5,294.751c35.575,0,45.249,9.39,45.249,45.755,0,35.575-9.927,44.744-45.5,44.744-36.365,0-45.249-9.422-45.249-45C776,303.889,785.137,294.751,821.5,294.751Z" transform="translate(-776 -294.75)"/>
  <path id="icon" class="cls-2" d="M835.57,354.7a1.406,1.406,0,0,0-.61.138c-0.219.088-.446,0.19-0.658,0.279l-0.31.13-0.4.162v0a38.29,38.29,0,0,1-13.3,2.922c-0.158,0-.315,0-0.469,0-6.728,0-12.216-3.117-17.756-6.192a1.262,1.262,0,0,0-.584-0.154,1.019,1.019,0,0,0-.69.267,0.944,0.944,0,0,0-.294.688,1.088,1.088,0,0,0,.431.843c5.2,4.513,10.895,8.706,18.557,8.71,0.148,0,.3,0,0.452-0.007a30.125,30.125,0,0,0,14.663-4.443l0.026-.017a14.683,14.683,0,0,0,1.649-1.137,1.315,1.315,0,0,0,.554-1.02A1.224,1.224,0,0,0,835.57,354.7Zm5.935-2.492v0a1.949,1.949,0,0,0-.288-1.025l-0.018-.024-0.022-.027a1.425,1.425,0,0,0-.544-0.356,6.987,6.987,0,0,0-2.362-.335,10.825,10.825,0,0,0-2.271.238l0-.051-0.789.263-0.014.006-0.445.145v0.02a7.13,7.13,0,0,0-1.442.807,1.131,1.131,0,0,0-.513.9,0.837,0.837,0,0,0,.3.641,0.948,0.948,0,0,0,.608.208,1.026,1.026,0,0,0,.129-0.008l0.038,0,0.028-.006c0.387-.081.949-0.135,1.607-0.228a15.813,15.813,0,0,1,1.681-.109,4.578,4.578,0,0,1,.924.073,1.083,1.083,0,0,1,.244.077,0.208,0.208,0,0,1,.036.017,0.868,0.868,0,0,1,.021.227,7.883,7.883,0,0,1-.431,2.025c-0.247.787-.546,1.575-0.744,2.1a1.089,1.089,0,0,0-.078.4,0.873,0.873,0,0,0,.264.635,0.888,0.888,0,0,0,.6.236h0.009a1.216,1.216,0,0,0,.749-0.285,9.25,9.25,0,0,0,2.727-6.292Zm-18.31-19.3c-1.177.089-2.537,0.178-3.9,0.357a20.078,20.078,0,0,0-5.881,1.451,8.7,8.7,0,0,0-5.613,8.507c0,5.343,3.439,8.058,7.786,8.058a14.908,14.908,0,0,0,3.708-.453,11.275,11.275,0,0,0,4.889-3.351,14.176,14.176,0,0,0,2.987,3.441,1.263,1.263,0,0,0,1.266-.09c1.089-.906,2.992-2.536,3.986-3.44a0.979,0.979,0,0,0,.089-1.355,6.775,6.775,0,0,1-1.992-4.8v-8.146c0-3.44.273-6.609-2.261-8.959-2.083-1.9-5.342-2.625-7.876-2.625H819.3c-4.614.267-9.5,2.261-10.59,7.964a0.848,0.848,0,0,0,.726,1.085l5.068,0.633a1.149,1.149,0,0,0,.9-0.992,4.136,4.136,0,0,1,3.891-3.17h0.365a3.555,3.555,0,0,1,2.894,1.358c0.726,1.086.636,2.536,0.636,3.8v0.725Zm-1,10.769a4.4,4.4,0,0,1-2.9,2.356c-0.179,0-.45.09-0.724,0.09-1.99,0-3.167-1.541-3.167-3.8,0-2.9,1.719-4.255,3.891-4.889a17.829,17.829,0,0,1,3.9-.363v1.088C823.2,340.235,823.285,341.863,822.2,343.675Z" transform="translate(-776 -294.75)"/>
</svg>
