<svg id="Android" xmlns="http://www.w3.org/2000/svg" xmlns:xlink="http://www.w3.org/1999/xlink" width="90.75" height="90.5" viewBox="0 0 90.75 90.5">
  <metadata><?xpacket begin="﻿" id="W5M0MpCehiHzreSzNTczkc9d"?>
<x:xmpmeta xmlns:x="adobe:ns:meta/" x:xmptk="Adobe XMP Core 5.6-c138 79.159824, 2016/09/14-01:09:01        ">
   <rdf:RDF xmlns:rdf="http://www.w3.org/1999/02/22-rdf-syntax-ns#">
      <rdf:Description rdf:about=""/>
   </rdf:RDF>
</x:xmpmeta>
                                                                                                    
                                                                                                    
                                                                                                    
                                                                                                    
                                                                                                    
                                                                                                    
                                                                                                    
                                                                                                    
                                                                                                    
                                                                                                    
                                                                                                    
                                                                                                    
                                                                                                    
                                                                                                    
                                                                                                    
                                                                                                    
                                                                                                    
                                                                                                    
                                                                                                    
                                                                                                    
                           
<?xpacket end="w"?></metadata>
<defs>
    <style>
      .cls-1 {
        fill: #47dd98;
        filter: url(#filter);
      }

      .cls-1, .cls-2 {
        fill-rule: evenodd;
      }

      .cls-2 {
        fill: #35363a;
      }
    </style>
    <filter id="filter" x="896" y="414.75" width="90.75" height="90.5" filterUnits="userSpaceOnUse">
      <feGaussianBlur result="blur" in="SourceAlpha"/>
      <feFlood result="flood" flood-color="#fff" flood-opacity="0.1"/>
      <feComposite result="composite" operator="out" in2="blur"/>
      <feOffset result="offset" dy="1"/>
      <feComposite result="composite-2" operator="in" in2="SourceAlpha"/>
      <feBlend result="blend" in2="SourceGraphic"/>
    </filter>
  </defs>
  <path id="container" class="cls-1" d="M941.5,414.751c35.575,0,45.249,9.39,45.249,45.755,0,35.575-9.927,44.744-45.5,44.744-36.365,0-45.249-9.422-45.249-45C896,423.889,905.137,414.751,941.5,414.751Z" transform="translate(-896 -414.75)"/>
  <path id="icon" class="cls-2" d="M956.8,452.952a2.854,2.854,0,0,0-2.891,2.7v10.938a2.969,2.969,0,0,0,2.984,2.735,3.06,3.06,0,0,0,3.079-2.735V455.655C959.971,454.151,958.3,452.952,956.8,452.952Zm-33.064-.032A2.743,2.743,0,0,0,921,455.655v10.938a2.743,2.743,0,0,0,2.735,2.735c1.5,0,3.2-1.232,3.2-2.735V455.655C926.938,454.151,925.239,452.92,923.735,452.92Zm4.289,17.775a4.034,4.034,0,0,0,3.852,4.258l1.148,0.031,0.031,5.25A3,3,0,0,0,936.04,483a2.936,2.936,0,0,0,2.922-2.766l-0.063-5.312,2.079,0.093,0.062,5.313c0,1.5,1.7,2.672,3.2,2.672a2.743,2.743,0,0,0,2.735-2.734v-5.344h1.367c2.266,0,4.6-1.963,4.6-4.227V454.936H928.024V470.7Zm17.185-27.623,1.73-3.325a0.341,0.341,0,1,0-.606-0.315l-1.757,3.374a12.345,12.345,0,0,0-8.869,0l-1.757-3.374a0.341,0.341,0,1,0-.606.315l1.73,3.325a12.313,12.313,0,0,0-7.162,9.848h24.459A12.313,12.313,0,0,0,945.209,443.072ZM934.673,450.8a1.983,1.983,0,1,1,1.982-1.982A1.983,1.983,0,0,1,934.673,450.8Zm10.938,0a1.983,1.983,0,1,1,1.983-1.982A1.983,1.983,0,0,1,945.611,450.8Z" transform="translate(-896 -414.75)"/>
</svg>
