<svg id="Apple" xmlns="http://www.w3.org/2000/svg" xmlns:xlink="http://www.w3.org/1999/xlink" width="90.75" height="90.5" viewBox="0 0 90.75 90.5">
  <metadata><?xpacket begin="﻿" id="W5M0MpCehiHzreSzNTczkc9d"?>
<x:xmpmeta xmlns:x="adobe:ns:meta/" x:xmptk="Adobe XMP Core 5.6-c138 79.159824, 2016/09/14-01:09:01        ">
   <rdf:RDF xmlns:rdf="http://www.w3.org/1999/02/22-rdf-syntax-ns#">
      <rdf:Description rdf:about=""/>
   </rdf:RDF>
</x:xmpmeta>
                                                                                                    
                                                                                                    
                                                                                                    
                                                                                                    
                                                                                                    
                                                                                                    
                                                                                                    
                                                                                                    
                                                                                                    
                                                                                                    
                                                                                                    
                                                                                                    
                                                                                                    
                                                                                                    
                                                                                                    
                                                                                                    
                                                                                                    
                                                                                                    
                                                                                                    
                                                                                                    
                           
<?xpacket end="w"?></metadata>
<defs>
    <style>
      .cls-1 {
        fill: #e9f5ef;
        filter: url(#filter);
      }

      .cls-1, .cls-2 {
        fill-rule: evenodd;
      }

      .cls-2 {
        fill: #35363a;
      }
    </style>
    <filter id="filter" x="56" y="294.75" width="90.75" height="90.5" filterUnits="userSpaceOnUse">
      <feGaussianBlur result="blur" in="SourceAlpha"/>
      <feFlood result="flood" flood-color="#fff" flood-opacity="0.1"/>
      <feComposite result="composite" operator="out" in2="blur"/>
      <feOffset result="offset" dy="1"/>
      <feComposite result="composite-2" operator="in" in2="SourceAlpha"/>
      <feBlend result="blend" in2="SourceGraphic"/>
    </filter>
  </defs>
  <path id="container" class="cls-1" d="M101.5,294.751c35.575,0,45.249,9.39,45.249,45.755,0,35.575-9.927,44.744-45.5,44.744-36.365,0-45.249-9.422-45.249-45C56,303.889,65.137,294.751,101.5,294.751Z" transform="translate(-56 -294.75)"/>
  <path id="icon" class="cls-2" d="M109.987,339.4a9.644,9.644,0,0,1,4.443-8.1,9.506,9.506,0,0,0-7.524-4.215c-3.205-.337-6.254,1.95-7.879,1.95s-4.133-1.9-6.79-1.85a10.027,10.027,0,0,0-8.512,5.332c-3.628,6.509-.928,16.152,2.608,21.43,1.729,2.585,3.79,5.487,6.5,5.383,2.6-.106,3.59-1.742,6.741-1.742s4.035,1.742,6.792,1.689c2.8-.053,4.581-2.634,6.3-5.226A23.975,23.975,0,0,0,115.51,348,9.35,9.35,0,0,1,109.987,339.4Zm-5.181-15.809a9.575,9.575,0,0,0,2.141-6.791,9.278,9.278,0,0,0-8.245,9.8A7.545,7.545,0,0,0,104.806,323.587Z" transform="translate(-56 -294.75)"/>
</svg>
