<svg id="Behance" xmlns="http://www.w3.org/2000/svg" xmlns:xlink="http://www.w3.org/1999/xlink" width="90.75" height="90.5" viewBox="0 0 90.75 90.5">
  <metadata><?xpacket begin="﻿" id="W5M0MpCehiHzreSzNTczkc9d"?>
<x:xmpmeta xmlns:x="adobe:ns:meta/" x:xmptk="Adobe XMP Core 5.6-c138 79.159824, 2016/09/14-01:09:01        ">
   <rdf:RDF xmlns:rdf="http://www.w3.org/1999/02/22-rdf-syntax-ns#">
      <rdf:Description rdf:about=""/>
   </rdf:RDF>
</x:xmpmeta>
                                                                                                    
                                                                                                    
                                                                                                    
                                                                                                    
                                                                                                    
                                                                                                    
                                                                                                    
                                                                                                    
                                                                                                    
                                                                                                    
                                                                                                    
                                                                                                    
                                                                                                    
                                                                                                    
                                                                                                    
                                                                                                    
                                                                                                    
                                                                                                    
                                                                                                    
                                                                                                    
                           
<?xpacket end="w"?></metadata>
<defs>
    <style>
      .cls-1 {
        fill: #82b0f8;
        filter: url(#filter);
      }

      .cls-1, .cls-2 {
        fill-rule: evenodd;
      }

      .cls-2 {
        fill: #35363a;
      }
    </style>
    <filter id="filter" x="296" y="294.75" width="90.75" height="90.5" filterUnits="userSpaceOnUse">
      <feGaussianBlur result="blur" in="SourceAlpha"/>
      <feFlood result="flood" flood-color="#fff" flood-opacity="0.1"/>
      <feComposite result="composite" operator="out" in2="blur"/>
      <feOffset result="offset" dy="1"/>
      <feComposite result="composite-2" operator="in" in2="SourceAlpha"/>
      <feBlend result="blend" in2="SourceGraphic"/>
    </filter>
  </defs>
  <path id="container" class="cls-1" d="M341.5,294.751c35.574,0,45.249,9.39,45.249,45.755,0,35.575-9.927,44.744-45.5,44.744-36.365,0-45.249-9.422-45.249-45C296,303.889,305.137,294.751,341.5,294.751Z" transform="translate(-296 -294.75)"/>
  <path id="icon" class="cls-2" d="M325.95,349.68v-6.712h6.424a7.649,7.649,0,0,1,2.737.34,2.723,2.723,0,0,1,1.743,2.735,3.17,3.17,0,0,1-1.8,3.186,6.871,6.871,0,0,1-2.773.451h-6.644m0.282-10.968v-5.627l5.675-.063a11.034,11.034,0,0,1,3.233.4,2.276,2.276,0,0,1,1.469,2.356,2.356,2.356,0,0,1-1.109,2.241,5.825,5.825,0,0,1-2.9.634h-6.653m7.767-10.061H320.183l-0.089,25.394h12.4a21.506,21.506,0,0,0,3.993-.44,7.076,7.076,0,0,0,2.98-1.059,7.228,7.228,0,0,0,1.939-2.008,7.1,7.1,0,0,0,1.22-4.069,6.423,6.423,0,0,0-1.07-3.741,6.07,6.07,0,0,0-3.162-2.251,6.45,6.45,0,0,0,2.089-1.453,5.428,5.428,0,0,0,1.27-3.758,6.22,6.22,0,0,0-1.256-3.9q-2.089-2.649-7.1-2.718m5.961,1.66a6.207,6.207,0,0,1,1.255,3.895,5.429,5.429,0,0,1-1.268,3.759,6.474,6.474,0,0,1-2.089,1.455,6.064,6.064,0,0,1,3.162,2.249,6.432,6.432,0,0,1,1.069,3.743,7.086,7.086,0,0,1-1.221,4.067,7.249,7.249,0,0,1-1.937,2.008,7.822,7.822,0,0,1-3.091,1.283,20.306,20.306,0,0,1-3.9.564l-12.367.67-0.026-26h13.221C335.514,327.983,337.973,328.482,339.365,330.249ZM324.5,331.963l-0.031,5.971h6.653a5.952,5.952,0,0,0,2.928-.976,2.356,2.356,0,0,0,1.109-2.241,2.275,2.275,0,0,0-1.469-2.357,11.025,11.025,0,0,0-3.233-.4H324.5Zm0,9.854-0.156,7.147h6.645a7.193,7.193,0,0,0,2.928-.794,3.169,3.169,0,0,0,1.8-3.185,2.725,2.725,0,0,0-1.745-2.736,7.3,7.3,0,0,0-2.736-.432H324.5Zm33.535-7.256a8.034,8.034,0,0,1,4.922,6.57,27.7,27.7,0,0,1,.087,3.836l-15.033.025a4.946,4.946,0,0,0,2.685,3.993,5.679,5.679,0,0,0,2.917.709,4.691,4.691,0,0,0,2.938-.864,2.839,2.839,0,0,0,1.2-.826l5.3-.031c-0.142,1.119-.806,1.814-1.968,2.968q-2.721,2.753-7.615,2.752a11.528,11.528,0,0,1-7.128-2.322q-3.086-2.319-3.086-7.555,0-4.9,2.785-7.521a10.15,10.15,0,0,1,7.238-2.617A12.278,12.278,0,0,1,358.036,334.561Zm-7.915,4.265a5.675,5.675,0,0,0-1.412,3.139h9.119a4.527,4.527,0,0,0-1.409-3.2,4.858,4.858,0,0,0-3.141-1.016A4.366,4.366,0,0,0,350.121,338.826Zm8.8-6.879-11.92.037,0.083-3.053,11.837,0.037v2.979Z" transform="translate(-296 -294.75)"/>
</svg>
