<svg id="Deviant_Art" data-name="Deviant Art" xmlns="http://www.w3.org/2000/svg" xmlns:xlink="http://www.w3.org/1999/xlink" width="90.75" height="90.5" viewBox="0 0 90.75 90.5">
  <metadata><?xpacket begin="﻿" id="W5M0MpCehiHzreSzNTczkc9d"?>
<x:xmpmeta xmlns:x="adobe:ns:meta/" x:xmptk="Adobe XMP Core 5.6-c138 79.159824, 2016/09/14-01:09:01        ">
   <rdf:RDF xmlns:rdf="http://www.w3.org/1999/02/22-rdf-syntax-ns#">
      <rdf:Description rdf:about=""/>
   </rdf:RDF>
</x:xmpmeta>
                                                                                                    
                                                                                                    
                                                                                                    
                                                                                                    
                                                                                                    
                                                                                                    
                                                                                                    
                                                                                                    
                                                                                                    
                                                                                                    
                                                                                                    
                                                                                                    
                                                                                                    
                                                                                                    
                                                                                                    
                                                                                                    
                                                                                                    
                                                                                                    
                                                                                                    
                                                                                                    
                           
<?xpacket end="w"?></metadata>
<defs>
    <style>
      .cls-1 {
        fill: #899694;
        filter: url(#filter);
      }

      .cls-1, .cls-2 {
        fill-rule: evenodd;
      }

      .cls-2 {
        fill: #35363a;
      }
    </style>
    <filter id="filter" x="536" y="294.75" width="90.75" height="90.5" filterUnits="userSpaceOnUse">
      <feGaussianBlur result="blur" in="SourceAlpha"/>
      <feFlood result="flood" flood-color="#fff" flood-opacity="0.1"/>
      <feComposite result="composite" operator="out" in2="blur"/>
      <feOffset result="offset" dy="1"/>
      <feComposite result="composite-2" operator="in" in2="SourceAlpha"/>
      <feBlend result="blend" in2="SourceGraphic"/>
    </filter>
  </defs>
  <path id="container" class="cls-1" d="M581.5,294.751c35.574,0,45.249,9.39,45.249,45.755,0,35.575-9.927,44.744-45.5,44.744-36.365,0-45.249-9.422-45.249-45C536,303.889,545.137,294.751,581.5,294.751Z" transform="translate(-536 -294.75)"/>
  <path id="icon" class="cls-2" d="M584.7,335.56a31.624,31.624,0,0,0-7.2.476l6.362,11.552,25.271-6.992a7.146,7.146,0,0,0-1.2-1.905c-2.615-3.051-8.286-5.773-14.464-7h0a51.076,51.076,0,0,0-19.347-.349c-0.242.036-.483,0.076-0.723,0.116l-2.235-4.169a35.182,35.182,0,0,0-6.111,1.356l2.128,4.484a21.552,21.552,0,0,0-8.387,5.616c-3.395,3.891-4.736,8.783-3.106,13.546a12.573,12.573,0,0,0,1.319,2.727l25.272-6.992-7.018-13.094c0.241-.047.487-0.095,0.737-0.14,11.348-2.041,17.556,1.11,20.955,4.464l-8.645,2.112Zm-20.465,11.684c-0.78-3.587-.159-7.59,4.779-10.256l3.866,8.145Z" transform="translate(-536 -294.75)"/>
</svg>
