<svg id="Dribbble" xmlns="http://www.w3.org/2000/svg" xmlns:xlink="http://www.w3.org/1999/xlink" width="90.75" height="90.5" viewBox="0 0 90.75 90.5">
  <metadata><?xpacket begin="﻿" id="W5M0MpCehiHzreSzNTczkc9d"?>
<x:xmpmeta xmlns:x="adobe:ns:meta/" x:xmptk="Adobe XMP Core 5.6-c138 79.159824, 2016/09/14-01:09:01        ">
   <rdf:RDF xmlns:rdf="http://www.w3.org/1999/02/22-rdf-syntax-ns#">
      <rdf:Description rdf:about=""/>
   </rdf:RDF>
</x:xmpmeta>
                                                                                                    
                                                                                                    
                                                                                                    
                                                                                                    
                                                                                                    
                                                                                                    
                                                                                                    
                                                                                                    
                                                                                                    
                                                                                                    
                                                                                                    
                                                                                                    
                                                                                                    
                                                                                                    
                                                                                                    
                                                                                                    
                                                                                                    
                                                                                                    
                                                                                                    
                                                                                                    
                           
<?xpacket end="w"?></metadata>
<defs>
    <style>
      .cls-1 {
        fill: #db9de1;
        filter: url(#filter);
      }

      .cls-1, .cls-2 {
        fill-rule: evenodd;
      }

      .cls-2 {
        fill: #35363a;
      }
    </style>
    <filter id="filter" x="536" y="54.75" width="90.75" height="90.5" filterUnits="userSpaceOnUse">
      <feGaussianBlur result="blur" in="SourceAlpha"/>
      <feFlood result="flood" flood-color="#fff" flood-opacity="0.1"/>
      <feComposite result="composite" operator="out" in2="blur"/>
      <feOffset result="offset" dy="1"/>
      <feComposite result="composite-2" operator="in" in2="SourceAlpha"/>
      <feBlend result="blend" in2="SourceGraphic"/>
    </filter>
  </defs>
  <path id="container" class="cls-1" d="M581.5,54.751c35.574,0,45.249,9.39,45.249,45.755,0,35.575-9.927,44.744-45.5,44.744-36.365,0-45.249-9.422-45.249-45C536,63.889,545.137,54.751,581.5,54.751Z" transform="translate(-536 -54.75)"/>
  <path id="icon" class="cls-2" d="M599.594,104.426a19.582,19.582,0,0,1-1.135,3.659,19.783,19.783,0,0,1-1.8,3.316,20.087,20.087,0,0,1-2.379,2.882,19.869,19.869,0,0,1-2.882,2.376,19.464,19.464,0,0,1-21.8,0,19.807,19.807,0,0,1-2.881-2.376,20.027,20.027,0,0,1-2.38-2.882,19.706,19.706,0,0,1-1.8-3.316,19.522,19.522,0,0,1,0-15.173,19.784,19.784,0,0,1,1.8-3.313,19.683,19.683,0,0,1,5.261-5.261,19.483,19.483,0,0,1,21.8,0,19.52,19.52,0,0,1,7.058,8.574A19.575,19.575,0,0,1,599.594,104.426Zm-9.858,9.517a16.3,16.3,0,0,0,4.293-4.321,16.548,16.548,0,0,0,1.5-2.772,16.259,16.259,0,0,0,.951-3.064c0.05-.246.074-0.5,0.113-0.748-0.135-.039-0.319-0.088-0.525-0.141l-0.1-.024c-0.47-.117-1.092-0.255-1.839-0.378l-0.01,0a23.943,23.943,0,0,0-7.569-.066A73.682,73.682,0,0,1,589.736,113.943Zm-15.586,1.59a16.4,16.4,0,0,0,3.061.951,16.491,16.491,0,0,0,6.575,0,16.264,16.264,0,0,0,3.064-.951c0.031-.013.06-0.03,0.091-0.044a70.171,70.171,0,0,0-3.5-12.3c-0.035.012-.07,0.02-0.106,0.032a28.043,28.043,0,0,0-2.765,1.142c-0.122.058-.251,0.113-0.371,0.172-0.8.393-1.54,0.807-2.229,1.232q-0.194.12-.382,0.24c-0.664.427-1.284,0.863-1.845,1.3-0.089.07-.171,0.139-0.257,0.208-0.569.457-1.1,0.915-1.565,1.362h0c-0.475.457-.885,0.9-1.258,1.322-0.052.059-.109,0.12-0.159,0.178-0.34.395-.635,0.768-0.891,1.112l-0.14.191c-0.237.328-.444,0.631-0.606,0.888-0.028.044-.05,0.081-0.076,0.123-0.152.246-.282,0.469-0.364,0.62h0c0.312,0.246.624,0.492,0.952,0.714A16.62,16.62,0,0,0,574.15,115.533Zm-9.938-15.557c-0.006.175-.026,0.349-0.026,0.524a16.6,16.6,0,0,0,.33,3.286,16.114,16.114,0,0,0,.951,3.064,13.629,13.629,0,0,0,2.861,4.412h0c0.11-.175.276-0.426,0.471-0.71,0.034-.051.059-0.087,0.1-0.141,0.205-.294.455-0.632,0.742-1,0.056-.073.109-0.14,0.168-0.215,0.306-.389.648-0.8,1.038-1.242,0.058-.066.119-0.131,0.179-0.2,0.423-.47.88-0.954,1.395-1.45h0c0.5-.485,1.064-0.974,1.655-1.458,0.09-.074.174-0.147,0.267-0.221,0.58-.462,1.2-0.912,1.865-1.347,0.125-.082.25-0.162,0.378-0.243a23.285,23.285,0,0,1,2.156-1.213c0.115-.056.234-0.106,0.35-0.161a21.524,21.524,0,0,1,2.566-1.032c0.211-.069.428-0.121,0.642-0.182-0.422-.953-0.864-1.909-1.345-2.85a61.372,61.372,0,0,1-15.859,2.375h0C564.718,99.976,564.417,99.978,564.212,99.976Zm9.395-14.247a16.265,16.265,0,0,0-8.14,8.421,16.161,16.161,0,0,0-.914,2.92c0.174,0,.414,0,0.707-0.008h0.021c0.6-.012,1.427-0.042,2.438-0.109h0.007a64.163,64.163,0,0,0,10.315-1.533h0q0.758-.178,1.531-0.383A101.49,101.49,0,0,0,573.607,85.729Zm16.015,1.242a16.437,16.437,0,0,0-2.772-1.5,16.249,16.249,0,0,0-6.35-1.282,16.4,16.4,0,0,0-3.289.331c-0.139.029-.273,0.074-0.411,0.106a85.617,85.617,0,0,1,5.985,9.388h0c0.651-.245,1.258-0.5,1.827-0.768l0.033-.016a18.18,18.18,0,0,0,6.612-4.907A16.644,16.644,0,0,0,589.622,86.971Zm6.862,10.24a16.34,16.34,0,0,0-.951-3.061,16.545,16.545,0,0,0-1.5-2.771c-0.272-.4-0.62-0.747-0.927-1.124a21.6,21.6,0,0,1-7.033,5.324l-0.132.065c-0.587.292-1.2,0.573-1.869,0.846,0.392,0.8.771,1.616,1.121,2.438,0.125,0.293.229,0.575,0.348,0.865,0.593-.075,1.182-0.126,1.767-0.162l0.3-.016q0.747-.04,1.472-0.046l0.248,0c0.554,0,1.1.009,1.617,0.031l0.113,0.006c0.472,0.021.923,0.05,1.359,0.084l0.31,0.025c0.424,0.037.83,0.076,1.207,0.119L594,99.839c0.406,0.047.771,0.1,1.11,0.145l0.244,0.036q0.381,0.057.687,0.109l0.169,0.028c0.242,0.043.441,0.079,0.592,0.109h0A16.7,16.7,0,0,0,596.484,97.211Z" transform="translate(-536 -54.75)"/>
</svg>
