<svg id="Email" xmlns="http://www.w3.org/2000/svg" xmlns:xlink="http://www.w3.org/1999/xlink" width="90.75" height="90.5" viewBox="0 0 90.75 90.5">
  <metadata><?xpacket begin="﻿" id="W5M0MpCehiHzreSzNTczkc9d"?>
<x:xmpmeta xmlns:x="adobe:ns:meta/" x:xmptk="Adobe XMP Core 5.6-c138 79.159824, 2016/09/14-01:09:01        ">
   <rdf:RDF xmlns:rdf="http://www.w3.org/1999/02/22-rdf-syntax-ns#">
      <rdf:Description rdf:about=""/>
   </rdf:RDF>
</x:xmpmeta>
                                                                                                    
                                                                                                    
                                                                                                    
                                                                                                    
                                                                                                    
                                                                                                    
                                                                                                    
                                                                                                    
                                                                                                    
                                                                                                    
                                                                                                    
                                                                                                    
                                                                                                    
                                                                                                    
                                                                                                    
                                                                                                    
                                                                                                    
                                                                                                    
                                                                                                    
                                                                                                    
                           
<?xpacket end="w"?></metadata>
<defs>
    <style>
      .cls-1 {
        fill: #e9f5ef;
        filter: url(#filter);
      }

      .cls-1, .cls-2 {
        fill-rule: evenodd;
      }

      .cls-2 {
        fill: #35363a;
      }
    </style>
    <filter id="filter" x="896" y="534.75" width="90.75" height="90.5" filterUnits="userSpaceOnUse">
      <feGaussianBlur result="blur" in="SourceAlpha"/>
      <feFlood result="flood" flood-color="#fff" flood-opacity="0.1"/>
      <feComposite result="composite" operator="out" in2="blur"/>
      <feOffset result="offset" dy="1"/>
      <feComposite result="composite-2" operator="in" in2="SourceAlpha"/>
      <feBlend result="blend" in2="SourceGraphic"/>
    </filter>
  </defs>
  <path id="container" class="cls-1" d="M941.5,534.751c35.575,0,45.249,9.39,45.249,45.755,0,35.575-9.927,44.744-45.5,44.744-36.365,0-45.249-9.422-45.249-45C896,543.889,905.137,534.751,941.5,534.751Z" transform="translate(-896 -534.75)"/>
  <path id="icon" class="cls-2" d="M940.733,605.656a23.75,23.75,0,1,1,23.75-23.75A23.75,23.75,0,0,1,940.733,605.656Zm1.771-39.335c-10.046,0-16.625,7.868-16.625,16.936a13.5,13.5,0,0,0,13.869,14,17.663,17.663,0,0,0,8.135-1.6l-0.8-2.534a15.073,15.073,0,0,1-6.446,1.378c-6.623,0-11.379-4.223-11.379-11.646,0-8.491,5.956-13.825,12.757-13.825,6.89,0,10.624,4.49,10.624,10.269,0,5.111-2.4,7.556-4.312,7.512-1.244-.045-1.555-1.245-1.111-3.867l1.334-8.224a12.484,12.484,0,0,0-5.29-1.111,10.152,10.152,0,0,0-10.4,10.357c0,3.645,2.089,5.779,4.979,5.779a6.525,6.525,0,0,0,5.734-3.423h0.089a3.486,3.486,0,0,0,3.823,3.423c4.8,0,8.446-4.09,8.446-10.58C955.929,571.7,950.328,566.321,942.5,566.321Zm-2.978,19.87c-1.467,0-2.223-1.067-2.223-2.756,0-3.423,2.312-6.313,5.246-6.313a5.466,5.466,0,0,1,1.378.178l-0.623,4.223C942.9,584.1,941.171,586.191,939.526,586.191Z" transform="translate(-896 -534.75)"/>
</svg>
