<svg id="Evernote" xmlns="http://www.w3.org/2000/svg" xmlns:xlink="http://www.w3.org/1999/xlink" width="90.75" height="90.5" viewBox="0 0 90.75 90.5">
  <metadata><?xpacket begin="﻿" id="W5M0MpCehiHzreSzNTczkc9d"?>
<x:xmpmeta xmlns:x="adobe:ns:meta/" x:xmptk="Adobe XMP Core 5.6-c138 79.159824, 2016/09/14-01:09:01        ">
   <rdf:RDF xmlns:rdf="http://www.w3.org/1999/02/22-rdf-syntax-ns#">
      <rdf:Description rdf:about=""/>
   </rdf:RDF>
</x:xmpmeta>
                                                                                                    
                                                                                                    
                                                                                                    
                                                                                                    
                                                                                                    
                                                                                                    
                                                                                                    
                                                                                                    
                                                                                                    
                                                                                                    
                                                                                                    
                                                                                                    
                                                                                                    
                                                                                                    
                                                                                                    
                                                                                                    
                                                                                                    
                                                                                                    
                                                                                                    
                                                                                                    
                           
<?xpacket end="w"?></metadata>
<defs>
    <style>
      .cls-1 {
        fill: #3de397;
        filter: url(#filter);
      }

      .cls-1, .cls-2 {
        fill-rule: evenodd;
      }

      .cls-2 {
        fill: #35363a;
      }
    </style>
    <filter id="filter" x="56" y="174.75" width="90.75" height="90.5" filterUnits="userSpaceOnUse">
      <feGaussianBlur result="blur" in="SourceAlpha"/>
      <feFlood result="flood" flood-color="#fff" flood-opacity="0.1"/>
      <feComposite result="composite" operator="out" in2="blur"/>
      <feOffset result="offset" dy="1"/>
      <feComposite result="composite-2" operator="in" in2="SourceAlpha"/>
      <feBlend result="blend" in2="SourceGraphic"/>
    </filter>
  </defs>
  <path id="container" class="cls-1" d="M101.5,174.751c35.575,0,45.249,9.39,45.249,45.755,0,35.575-9.927,44.744-45.5,44.744-36.365,0-45.249-9.422-45.249-45C56,183.889,65.137,174.751,101.5,174.751Z" transform="translate(-56 -174.75)"/>
  <path id="icon" class="cls-2" d="M115.236,230.14a25.155,25.155,0,0,1-1.911,8.356c-0.576,1.667-1.36,3.15-3.613,3.328a38.407,38.407,0,0,1-6.514.14c-1.985-.056-3.039-1.357-3.328-3.681v-2.408c0-1.6.878-3,3.328-4.036l2.691,0.142V235.1l-1.132.07c-1.671.023-2.544,2.647-.142,2.974a9.778,9.778,0,0,0,2.62,0c2.009-.293,2.409-0.477,2.407-2.054-0.024-.7-0.046-1.542-0.07-2.619-0.115-1.276-.9-3.474-2.266-3.4a12.053,12.053,0,0,1-3.471-.425c-1.649-.522-2.261-0.274-3.54-2.76a10.753,10.753,0,0,0-.851,2.407,2.043,2.043,0,0,1-2.266,1.983,40.452,40.452,0,0,1-4.6-.85,26.5,26.5,0,0,1-4.251-.92c-2.362-.995-2.552-3.729-3.117-6.162-0.486-2.289-.833-4.741-1.131-7.151-0.314-2.168.39-3.589,2.9-3.683l3.612,0.071c1-.1,1.954-0.237,1.842-1.629l-0.072-4.106a3.337,3.337,0,0,1,3.258-2.834l3.47,0.143c1.2,0.2,3.23.578,3.965,2.832a41.5,41.5,0,0,1,6.868.426c2.138,0.836,5.552.394,5.1,3.822,0.468,0.167.536,5.328,0.639,10.055A71.48,71.48,0,0,1,115.236,230.14Zm-6.975-10.375c-2.122.213-2.041,1.427-2.16,2.549l4.143,0.036C110.373,220.192,109.443,219.772,108.261,219.765ZM90.7,211.516c-2,.089-3.93-0.275-6.019.319l7.01-6.94c-0.585,1.44-.342,4.083-0.458,6.054A0.571,0.571,0,0,1,90.7,211.516Z" transform="translate(-56 -174.75)"/>
</svg>
