<svg id="Four_Square" data-name="Four Square" xmlns="http://www.w3.org/2000/svg" xmlns:xlink="http://www.w3.org/1999/xlink" width="90.75" height="90.5" viewBox="0 0 90.75 90.5">
  <metadata><?xpacket begin="﻿" id="W5M0MpCehiHzreSzNTczkc9d"?>
<x:xmpmeta xmlns:x="adobe:ns:meta/" x:xmptk="Adobe XMP Core 5.6-c138 79.159824, 2016/09/14-01:09:01        ">
   <rdf:RDF xmlns:rdf="http://www.w3.org/1999/02/22-rdf-syntax-ns#">
      <rdf:Description rdf:about=""/>
   </rdf:RDF>
</x:xmpmeta>
                                                                                                    
                                                                                                    
                                                                                                    
                                                                                                    
                                                                                                    
                                                                                                    
                                                                                                    
                                                                                                    
                                                                                                    
                                                                                                    
                                                                                                    
                                                                                                    
                                                                                                    
                                                                                                    
                                                                                                    
                                                                                                    
                                                                                                    
                                                                                                    
                                                                                                    
                                                                                                    
                           
<?xpacket end="w"?></metadata>
<defs>
    <style>
      .cls-1 {
        fill: #81e0fe;
        filter: url(#filter);
      }

      .cls-1, .cls-2 {
        fill-rule: evenodd;
      }

      .cls-2 {
        fill: #35363a;
      }
    </style>
    <filter id="filter" x="1016" y="534.75" width="90.75" height="90.5" filterUnits="userSpaceOnUse">
      <feGaussianBlur result="blur" in="SourceAlpha"/>
      <feFlood result="flood" flood-color="#fff" flood-opacity="0.1"/>
      <feComposite result="composite" operator="out" in2="blur"/>
      <feOffset result="offset" dy="1"/>
      <feComposite result="composite-2" operator="in" in2="SourceAlpha"/>
      <feBlend result="blend" in2="SourceGraphic"/>
    </filter>
  </defs>
  <path id="container" class="cls-1" d="M1061.5,534.751c35.58,0,45.25,9.39,45.25,45.755,0,35.575-9.93,44.744-45.5,44.744-36.37,0-45.25-9.422-45.25-45C1016,543.889,1025.14,534.751,1061.5,534.751Z" transform="translate(-1016 -534.75)"/>
  <path id="icon" class="cls-2" d="M1082.4,562.048h-5.39l-11.78,16.708-4.67-4.667a3.479,3.479,0,0,0-4.92,0l-2.12,2.119c-0.12-.162-0.24-0.322-0.37-0.477a8.04,8.04,0,1,0-12.22,10.452,7.946,7.946,0,0,0,2.29,1.846,3.434,3.434,0,0,0,1.01,2.392l11.41,11.408a3.479,3.479,0,0,0,4.92,0l11.41-11.408a3.48,3.48,0,0,0,0-4.923l-1.31-1.312,12.33-9.9V562.016Zm-25.14,13.657a1.164,1.164,0,0,1,.84-0.351,1.2,1.2,0,0,1,.85.351l4.92,4.919-5.35,7.342a0.717,0.717,0,0,1-1.18.06c-0.06-.074-1.31-1.717-2.94-3.844a8,8,0,0,0,.23-5.855Zm13.1,11.409a1.2,1.2,0,0,1,0,1.692l-11.41,11.408a1.208,1.208,0,0,1-.85.35,1.164,1.164,0,0,1-.84-0.351l-11.3-11.291a8.073,8.073,0,0,0,3.94-.451l7.57,6.093a0.672,0.672,0,0,0,.88.013l10.56-8.913Z" transform="translate(-1016 -534.75)"/>
</svg>
