<svg id="Git" xmlns="http://www.w3.org/2000/svg" xmlns:xlink="http://www.w3.org/1999/xlink" width="90.75" height="90.5" viewBox="0 0 90.75 90.5">
  <metadata><?xpacket begin="﻿" id="W5M0MpCehiHzreSzNTczkc9d"?>
<x:xmpmeta xmlns:x="adobe:ns:meta/" x:xmptk="Adobe XMP Core 5.6-c138 79.159824, 2016/09/14-01:09:01        ">
   <rdf:RDF xmlns:rdf="http://www.w3.org/1999/02/22-rdf-syntax-ns#">
      <rdf:Description rdf:about=""/>
   </rdf:RDF>
</x:xmpmeta>
                                                                                                    
                                                                                                    
                                                                                                    
                                                                                                    
                                                                                                    
                                                                                                    
                                                                                                    
                                                                                                    
                                                                                                    
                                                                                                    
                                                                                                    
                                                                                                    
                                                                                                    
                                                                                                    
                                                                                                    
                                                                                                    
                                                                                                    
                                                                                                    
                                                                                                    
                                                                                                    
                           
<?xpacket end="w"?></metadata>
<defs>
    <style>
      .cls-1 {
        fill: #899694;
        filter: url(#filter);
      }

      .cls-1, .cls-2 {
        fill-rule: evenodd;
      }

      .cls-2 {
        fill: #35363a;
      }
    </style>
    <filter id="filter" x="656" y="534.75" width="90.75" height="90.5" filterUnits="userSpaceOnUse">
      <feGaussianBlur result="blur" in="SourceAlpha"/>
      <feFlood result="flood" flood-color="#fff" flood-opacity="0.1"/>
      <feComposite result="composite" operator="out" in2="blur"/>
      <feOffset result="offset" dy="1"/>
      <feComposite result="composite-2" operator="in" in2="SourceAlpha"/>
      <feBlend result="blend" in2="SourceGraphic"/>
    </filter>
  </defs>
  <path id="container" class="cls-1" d="M701.5,534.751c35.575,0,45.249,9.39,45.249,45.755,0,35.575-9.927,44.744-45.5,44.744-36.365,0-45.249-9.422-45.249-45C656,543.889,665.137,534.751,701.5,534.751Z" transform="translate(-656 -534.75)"/>
  <path id="icon" class="cls-2" d="M700.372,597.4a3.671,3.671,0,0,1-2.539-1.3,0.872,0.872,0,1,1,1.233-1.234,1.473,1.473,0,0,0,2.612,0,0.873,0.873,0,0,1,1.233,1.235,3.677,3.677,0,0,1-2.539,1.3M678,584.013a28.872,28.872,0,0,0,.559,5.929,18.022,18.022,0,0,0,1.573,4.611,12.8,12.8,0,0,0,2.563,3.423,15.06,15.06,0,0,0,3.369,2.425,18.85,18.85,0,0,0,4.16,1.541,32.625,32.625,0,0,0,4.764.823q2.425,0.234,5.337.235t5.347-.235a32.627,32.627,0,0,0,4.778-.823,19.16,19.16,0,0,0,4.171-1.541,15.2,15.2,0,0,0,3.392-2.423,12.716,12.716,0,0,0,2.574-3.425,18.454,18.454,0,0,0,1.586-4.61,28.441,28.441,0,0,0,.57-5.93,14.987,14.987,0,0,0-3.635-10.092,8.949,8.949,0,0,0,.361-1.294q0.15-.729.292-2.057a12.658,12.658,0,0,0-.106-3.071,16.86,16.86,0,0,0-.921-3.553l-0.349-.07a3.671,3.671,0,0,0-1.142.047,14.242,14.242,0,0,0-1.851.423,14.707,14.707,0,0,0-2.739,1.213,29.077,29.077,0,0,0-3.542,2.292,29.754,29.754,0,0,0-17.5,0,27.6,27.6,0,0,0-3.554-2.282,18.343,18.343,0,0,0-2.7-1.223,9.392,9.392,0,0,0-1.877-.423,5.805,5.805,0,0,0-1.106-.059,1.591,1.591,0,0,0-.36.082,17.349,17.349,0,0,0-.933,3.553,12.317,12.317,0,0,0-.116,3.058,20.313,20.313,0,0,0,.3,2.07,8.488,8.488,0,0,0,.372,1.294A14.934,14.934,0,0,0,678,584.013m5.966,4.978a10.043,10.043,0,0,1,2.8-6.9,5.582,5.582,0,0,1,1.945-1.429,6.994,6.994,0,0,1,2.518-.551,23.249,23.249,0,0,1,2.69.025q1.282,0.092,3.17.25t3.262,0.157q1.376,0,3.262-.157t3.171-.25a23.249,23.249,0,0,1,2.69-.025,7.078,7.078,0,0,1,2.528.551,5.559,5.559,0,0,1,1.959,1.429,10.037,10.037,0,0,1,2.8,6.9,15.421,15.421,0,0,1-.467,3.974,11.324,11.324,0,0,1-1.175,2.924,6.07,6.07,0,0,1-1.992,1.994,13.407,13.407,0,0,1-2.483,1.258,14.452,14.452,0,0,1-3.1.7q-1.9.247-3.4,0.3t-3.786.052q-2.281,0-3.775-.052t-3.391-.3a14.456,14.456,0,0,1-3.1-.7,13.338,13.338,0,0,1-2.482-1.258,6.086,6.086,0,0,1-1.994-1.994,11.431,11.431,0,0,1-1.176-2.924,15.423,15.423,0,0,1-.466-3.974m5.22-1.371c0,2.317,1.253,4.194,2.8,4.194s2.8-1.877,2.8-4.194-1.253-4.2-2.8-4.2-2.8,1.878-2.8,4.2m16.779,0c0,2.317,1.252,4.194,2.8,4.194s2.8-1.877,2.8-4.194-1.253-4.2-2.8-4.2-2.8,1.878-2.8,4.2" transform="translate(-656 -534.75)"/>
</svg>
