<svg id="Google_" data-name="Google +" xmlns="http://www.w3.org/2000/svg" xmlns:xlink="http://www.w3.org/1999/xlink" width="90.75" height="90.5" viewBox="0 0 90.75 90.5">
  <metadata><?xpacket begin="﻿" id="W5M0MpCehiHzreSzNTczkc9d"?>
<x:xmpmeta xmlns:x="adobe:ns:meta/" x:xmptk="Adobe XMP Core 5.6-c138 79.159824, 2016/09/14-01:09:01        ">
   <rdf:RDF xmlns:rdf="http://www.w3.org/1999/02/22-rdf-syntax-ns#">
      <rdf:Description rdf:about=""/>
   </rdf:RDF>
</x:xmpmeta>
                                                                                                    
                                                                                                    
                                                                                                    
                                                                                                    
                                                                                                    
                                                                                                    
                                                                                                    
                                                                                                    
                                                                                                    
                                                                                                    
                                                                                                    
                                                                                                    
                                                                                                    
                                                                                                    
                                                                                                    
                                                                                                    
                                                                                                    
                                                                                                    
                                                                                                    
                                                                                                    
                           
<?xpacket end="w"?></metadata>
<defs>
    <style>
      .cls-1 {
        fill: #ed676b;
        filter: url(#filter);
      }

      .cls-1, .cls-2 {
        fill-rule: evenodd;
      }

      .cls-2 {
        fill: #35363a;
      }
    </style>
    <filter id="filter" x="296" y="54.75" width="90.75" height="90.5" filterUnits="userSpaceOnUse">
      <feGaussianBlur result="blur" in="SourceAlpha"/>
      <feFlood result="flood" flood-color="#fff" flood-opacity="0.1"/>
      <feComposite result="composite" operator="out" in2="blur"/>
      <feOffset result="offset" dy="1"/>
      <feComposite result="composite-2" operator="in" in2="SourceAlpha"/>
      <feBlend result="blend" in2="SourceGraphic"/>
    </filter>
  </defs>
  <path id="container" class="cls-1" d="M341.5,54.751c35.575,0,45.249,9.39,45.249,45.755,0,35.575-9.927,44.744-45.5,44.744-36.365,0-45.249-9.422-45.249-45C296,63.889,305.137,54.751,341.5,54.751Z" transform="translate(-296 -54.75)"/>
  <path id="icon" class="cls-2" d="M363.936,89.994h-5.944l0-6.007h-2.029v6.038h-6.007v1.962h6.007v5.978l2,0.057,0-6.035h5.975V89.994ZM342.77,104.882c-1.079-.754-3.141-2.582-3.141-3.658,0-1.26.366-1.881,2.291-3.363a7.865,7.865,0,0,0,3.369-6.142c0-2.958-1.336-5.842-3.845-6.793h3.784l1.562-.658s-7.842-1.245-10.825-1.245c-5.35,0-10.384,3.993-10.384,8.621,0,4.729,3.647,8.545,9.089,8.545,0.378,0,.746-0.008,1.1-0.032a4.747,4.747,0,0,0-.6,2.2A4.536,4.536,0,0,0,336.8,105.6c-0.685,0-1.347.02-2.068,0.02-6.627,0-11.727,4.158-11.727,8.472,0,4.248,5.59,6.906,12.217,6.906,7.555,0,11.727-4.225,11.727-8.473,0-3.405-1.019-5.445-4.172-7.642Zm-6.376-5.893h0c-3.075-.091-6-3.389-6.527-7.369s1.531-7.024,4.6-6.934,6,3.283,6.527,7.262S339.465,99.08,336.394,98.989Zm-1.2,20.129h0c-4.579,0-7.888-2.858-7.888-6.29,0-3.363,4.1-6.164,8.683-6.116a10.075,10.075,0,0,1,2.969.47c2.486,1.7,4.271,2.666,4.773,4.609a5.228,5.228,0,0,1,.145,1.213C343.873,116.435,341.63,119.118,335.191,119.118Z" transform="translate(-296 -54.75)"/>
</svg>
