<svg id="Instagram" xmlns="http://www.w3.org/2000/svg" xmlns:xlink="http://www.w3.org/1999/xlink" width="90.75" height="90.5" viewBox="0 0 90.75 90.5">
  <metadata><?xpacket begin="﻿" id="W5M0MpCehiHzreSzNTczkc9d"?>
<x:xmpmeta xmlns:x="adobe:ns:meta/" x:xmptk="Adobe XMP Core 5.6-c138 79.159824, 2016/09/14-01:09:01        ">
   <rdf:RDF xmlns:rdf="http://www.w3.org/1999/02/22-rdf-syntax-ns#">
      <rdf:Description rdf:about=""/>
   </rdf:RDF>
</x:xmpmeta>
                                                                                                    
                                                                                                    
                                                                                                    
                                                                                                    
                                                                                                    
                                                                                                    
                                                                                                    
                                                                                                    
                                                                                                    
                                                                                                    
                                                                                                    
                                                                                                    
                                                                                                    
                                                                                                    
                                                                                                    
                                                                                                    
                                                                                                    
                                                                                                    
                                                                                                    
                                                                                                    
                           
<?xpacket end="w"?></metadata>
<defs>
    <style>
      .cls-1 {
        fill: #fde67b;
        filter: url(#filter);
      }

      .cls-1, .cls-2 {
        fill-rule: evenodd;
      }

      .cls-2 {
        fill: #35363a;
      }
    </style>
    <filter id="filter" x="296" y="174.75" width="90.75" height="90.5" filterUnits="userSpaceOnUse">
      <feGaussianBlur result="blur" in="SourceAlpha"/>
      <feFlood result="flood" flood-color="#fff" flood-opacity="0.1"/>
      <feComposite result="composite" operator="out" in2="blur"/>
      <feOffset result="offset" dy="1"/>
      <feComposite result="composite-2" operator="in" in2="SourceAlpha"/>
      <feBlend result="blend" in2="SourceGraphic"/>
    </filter>
  </defs>
  <path id="container" class="cls-1" d="M341.5,174.751c35.575,0,45.249,9.39,45.249,45.755,0,35.575-9.927,44.744-45.5,44.744-36.365,0-45.249-9.422-45.249-45C296,183.889,305.137,174.751,341.5,174.751Z" transform="translate(-296 -174.75)"/>
  <path id="icon" class="cls-2" d="M354.625,203h-26.25A4.377,4.377,0,0,0,324,207.375v26.25A4.377,4.377,0,0,0,328.375,238h26.25A4.377,4.377,0,0,0,359,233.625v-26.25A4.377,4.377,0,0,0,354.625,203M341.5,216.125c4.03,0,4.375,4.375,4.375,4.375s0.129,4.375-4.375,4.375-4.375-4.375-4.375-4.375,0.346-4.375,4.375-4.375m13.469,15.281a2.912,2.912,0,0,1-2.594,2.563H330.5a2.818,2.818,0,0,1-2.531-2.531V220.5a2.85,2.85,0,0,1,2.594-2.5h2.5a11.191,11.191,0,0,0-.311,2.5,8.75,8.75,0,0,0,17.5,0,11.039,11.039,0,0,0-.311-2.469h2.5a2.729,2.729,0,0,1,2.531,2.438v10.937Zm-0.344-19.656a2.187,2.187,0,0,1-2.187,2.188H350.25a2.188,2.188,0,0,1-2.187-2.188v-2.187a2.188,2.188,0,0,1,2.187-2.188h2.188a2.187,2.187,0,0,1,2.187,2.188v2.187Z" transform="translate(-296 -174.75)"/>
</svg>
