<svg id="Last_FM" data-name="Last FM" xmlns="http://www.w3.org/2000/svg" xmlns:xlink="http://www.w3.org/1999/xlink" width="90.75" height="90.5" viewBox="0 0 90.75 90.5">
  <metadata><?xpacket begin="﻿" id="W5M0MpCehiHzreSzNTczkc9d"?>
<x:xmpmeta xmlns:x="adobe:ns:meta/" x:xmptk="Adobe XMP Core 5.6-c138 79.159824, 2016/09/14-01:09:01        ">
   <rdf:RDF xmlns:rdf="http://www.w3.org/1999/02/22-rdf-syntax-ns#">
      <rdf:Description rdf:about=""/>
   </rdf:RDF>
</x:xmpmeta>
                                                                                                    
                                                                                                    
                                                                                                    
                                                                                                    
                                                                                                    
                                                                                                    
                                                                                                    
                                                                                                    
                                                                                                    
                                                                                                    
                                                                                                    
                                                                                                    
                                                                                                    
                                                                                                    
                                                                                                    
                                                                                                    
                                                                                                    
                                                                                                    
                                                                                                    
                                                                                                    
                           
<?xpacket end="w"?></metadata>
<defs>
    <style>
      .cls-1 {
        fill: #ff698c;
        filter: url(#filter);
      }

      .cls-1, .cls-2 {
        fill-rule: evenodd;
      }

      .cls-2 {
        fill: #35363a;
      }
    </style>
    <filter id="filter" x="416" y="534.75" width="90.75" height="90.5" filterUnits="userSpaceOnUse">
      <feGaussianBlur result="blur" in="SourceAlpha"/>
      <feFlood result="flood" flood-color="#fff" flood-opacity="0.1"/>
      <feComposite result="composite" operator="out" in2="blur"/>
      <feOffset result="offset" dy="1"/>
      <feComposite result="composite-2" operator="in" in2="SourceAlpha"/>
      <feBlend result="blend" in2="SourceGraphic"/>
    </filter>
  </defs>
  <path id="container" class="cls-1" d="M461.5,534.751c35.575,0,45.249,9.39,45.249,45.755,0,35.575-9.927,44.744-45.5,44.744-36.365,0-45.249-9.422-45.249-45C416,543.889,425.137,534.751,461.5,534.751Z" transform="translate(-416 -534.75)"/>
  <path id="icon" class="cls-2" d="M454.263,588.56a8.987,8.987,0,0,1-6.273,2.765c-3.867,0-7.593-3.39-7.593-8.815,0-6.948,4.452-9.189,7.873-9.189,4.93,0,6.012,2.974,7.355,7.1l1.793,5.65c1.79,5.478,5.154,9.882,14.849,9.882,6.951,0,11.657-2.145,11.657-7.792,0-4.578-2.58-6.95-7.4-8.08l-3.587-.787c-2.466-.566-3.194-1.581-3.194-3.279,0-1.92,1.513-3.05,3.977-3.05,2.69,0,4.146,1.017,4.371,3.446l5.6-.678c-0.448-5.083-3.922-7.174-9.638-7.174-5.044,0-9.974,1.92-9.974,8.077,0,3.84,1.85,6.27,6.5,7.4l3.813,0.9c2.858,0.678,3.812,1.868,3.812,3.506,0,2.089-2.018,2.935-5.829,2.935-5.659,0-8.5-3-9.846-7.116l-1.852-5.651c-2.353-7.341-5.133-10.054-12.586-10.054-6.644,0-13.1,5.255-13.1,14.178,0,8.589,6.2,13.219,12.707,13.219a12.933,12.933,0,0,0,8.268-2.5Z" transform="translate(-416 -534.75)"/>
</svg>
