<svg id="LinkedIn" xmlns="http://www.w3.org/2000/svg" xmlns:xlink="http://www.w3.org/1999/xlink" width="90.75" height="90.5" viewBox="0 0 90.75 90.5">
  <metadata><?xpacket begin="﻿" id="W5M0MpCehiHzreSzNTczkc9d"?>
<x:xmpmeta xmlns:x="adobe:ns:meta/" x:xmptk="Adobe XMP Core 5.6-c138 79.159824, 2016/09/14-01:09:01        ">
   <rdf:RDF xmlns:rdf="http://www.w3.org/1999/02/22-rdf-syntax-ns#">
      <rdf:Description rdf:about=""/>
   </rdf:RDF>
</x:xmpmeta>
                                                                                                    
                                                                                                    
                                                                                                    
                                                                                                    
                                                                                                    
                                                                                                    
                                                                                                    
                                                                                                    
                                                                                                    
                                                                                                    
                                                                                                    
                                                                                                    
                                                                                                    
                                                                                                    
                                                                                                    
                                                                                                    
                                                                                                    
                                                                                                    
                                                                                                    
                                                                                                    
                           
<?xpacket end="w"?></metadata>
<defs>
    <style>
      .cls-1 {
        fill: #30a8e6;
        filter: url(#filter);
      }

      .cls-1, .cls-2 {
        fill-rule: evenodd;
      }

      .cls-2 {
        fill: #35363a;
      }
    </style>
    <filter id="filter" x="1016" y="294.75" width="90.75" height="90.5" filterUnits="userSpaceOnUse">
      <feGaussianBlur result="blur" in="SourceAlpha"/>
      <feFlood result="flood" flood-color="#fff" flood-opacity="0.1"/>
      <feComposite result="composite" operator="out" in2="blur"/>
      <feOffset result="offset" dy="1"/>
      <feComposite result="composite-2" operator="in" in2="SourceAlpha"/>
      <feBlend result="blend" in2="SourceGraphic"/>
    </filter>
  </defs>
  <path id="container" class="cls-1" d="M1061.5,294.751c35.58,0,45.25,9.39,45.25,45.755,0,35.575-9.93,44.744-45.5,44.744-36.37,0-45.25-9.422-45.25-45C1016,303.889,1025.14,294.751,1061.5,294.751Z" transform="translate(-1016 -294.75)"/>
  <path id="icon" class="cls-2" d="M1071.8,357V343.263c0-3.262-1.49-5.489-4.34-5.489a4.591,4.591,0,0,0-4.23,2.95,5.667,5.667,0,0,0-.07,1.876V357h-7.2V339.72a18.335,18.335,0,0,0-1.44-7.2h7.2v2.88l0.36,0.039a8.792,8.792,0,0,1,7.84-4.063c5.19,0,9.08,3.5,9.08,10.954V357h-7.2ZM1043,332.52h8.64V357H1043V332.52Zm4.18-3.655a3.944,3.944,0,1,1,4.26-3.936A3.93,3.93,0,0,1,1047.18,328.865Z" transform="translate(-1016 -294.75)"/>
</svg>
