<svg id="Linux" xmlns="http://www.w3.org/2000/svg" xmlns:xlink="http://www.w3.org/1999/xlink" width="90.75" height="90.5" viewBox="0 0 90.75 90.5">
  <metadata><?xpacket begin="﻿" id="W5M0MpCehiHzreSzNTczkc9d"?>
<x:xmpmeta xmlns:x="adobe:ns:meta/" x:xmptk="Adobe XMP Core 5.6-c138 79.159824, 2016/09/14-01:09:01        ">
   <rdf:RDF xmlns:rdf="http://www.w3.org/1999/02/22-rdf-syntax-ns#">
      <rdf:Description rdf:about=""/>
   </rdf:RDF>
</x:xmpmeta>
                                                                                                    
                                                                                                    
                                                                                                    
                                                                                                    
                                                                                                    
                                                                                                    
                                                                                                    
                                                                                                    
                                                                                                    
                                                                                                    
                                                                                                    
                                                                                                    
                                                                                                    
                                                                                                    
                                                                                                    
                                                                                                    
                                                                                                    
                                                                                                    
                                                                                                    
                                                                                                    
                           
<?xpacket end="w"?></metadata>
<defs>
    <style>
      .cls-1 {
        fill: #e9f5ef;
        filter: url(#filter);
      }

      .cls-1, .cls-2 {
        fill-rule: evenodd;
      }

      .cls-2 {
        fill: #35363a;
      }
    </style>
    <filter id="filter" x="1016" y="174.75" width="90.75" height="90.5" filterUnits="userSpaceOnUse">
      <feGaussianBlur result="blur" in="SourceAlpha"/>
      <feFlood result="flood" flood-color="#fff" flood-opacity="0.1"/>
      <feComposite result="composite" operator="out" in2="blur"/>
      <feOffset result="offset" dy="1"/>
      <feComposite result="composite-2" operator="in" in2="SourceAlpha"/>
      <feBlend result="blend" in2="SourceGraphic"/>
    </filter>
  </defs>
  <path id="container" class="cls-1" d="M1061.5,174.751c35.58,0,45.25,9.39,45.25,45.755,0,35.575-9.93,44.744-45.5,44.744-36.37,0-45.25-9.422-45.25-45C1016,183.889,1025.14,174.751,1061.5,174.751Z" transform="translate(-1016 -174.75)"/>
  <path id="icon" class="cls-2" d="M1063.18,227.786a16.141,16.141,0,0,1-8.18,1.329,11.718,11.718,0,0,1-5.15-1.4,1.135,1.135,0,1,0-1.27,1.882,13.809,13.809,0,0,0,6.25,1.78c0.43,0.032.9,0.05,1.4,0.05a18.142,18.142,0,0,0,7.9-1.584,1.135,1.135,0,1,0-.95-2.061m12.62-1.683c0.11-9.871,1.13-28.524-17.77-27.017-18.65,1.5-13.71,21.209-13.99,27.811A45.129,45.129,0,0,1,1041,239h5.04a31.294,31.294,0,0,0,1.07-5.4c0.3,0.212.63,0.416,0.97,0.613a9.74,9.74,0,0,1,1.57,1.244,7.732,7.732,0,0,0,5.22,2.49c0.18,0.01.36,0.016,0.54,0.016a10.6,10.6,0,0,0,6.01-2.125,9.311,9.311,0,0,1,1.89-1.033,10.266,10.266,0,0,0,4.14-2.393c0.17-.165.32-0.333,0.47-0.5,0.59,2.182,1.41,4.639,2.31,7.09H1081c-2.58-4-5.25-7.906-5.2-12.9m-29.95-5.37h0c-0.19-3.222,1.35-5.932,3.44-6.053s3.93,2.392,4.11,5.613h0a4.494,4.494,0,0,1,.02.517,7.982,7.982,0,0,0-1.79.688c0-.024-0.01-0.047-0.01-0.072h0c-0.18-1.829-1.15-3.21-2.18-3.083s-1.72,1.708-1.54,3.537a5.062,5.062,0,0,0,.63,2.05c-0.08.062-.3,0.227-0.56,0.416-0.2.142-.43,0.315-0.72,0.525a7.557,7.557,0,0,1-1.4-4.137m21.14,7.963c-0.08,1.7-2.3,3.3-4.36,3.945l-0.01,0a10.756,10.756,0,0,0-2.43,1.281,8.436,8.436,0,0,1-4.78,1.767c-0.14,0-.27,0-0.41-0.011a5.555,5.555,0,0,1-3.82-1.9,11.631,11.631,0,0,0-1.95-1.528l-0.02-.01c-1.67-.941-2.7-2.112-2.77-3.132a1.471,1.471,0,0,1,.67-1.3c1.04-.78,1.74-1.291,2.2-1.628a8.935,8.935,0,0,0,.78-0.595c0.08-.078.17-0.164,0.27-0.257a7.111,7.111,0,0,1,5-2.483,9.316,9.316,0,0,1,4.93,1.716,10.205,10.205,0,0,0,2.48,1.109c0.63,0.217,1.34.464,2.3,0.874l0.02,0.008c0.89,0.366,1.95,1.037,1.9,2.146m-0.49-4c-0.18-.086-0.35-0.169-0.54-0.246-0.86-.369-1.56-0.62-2.13-0.82a5.194,5.194,0,0,0,.53-2.236h0c0.04-2.046-.99-3.707-2.3-3.711s-2.42,1.653-2.47,3.7h0v0.2a11.476,11.476,0,0,0-2.39-.811c0-.076-0.01-0.153-0.01-0.231h0c-0.07-3.728,2.21-6.813,5.11-6.891s5.31,2.878,5.38,6.6v0a8,8,0,0,1-1.18,4.44" transform="translate(-1016 -174.75)"/>
</svg>
