<svg id="Pinterest" xmlns="http://www.w3.org/2000/svg" xmlns:xlink="http://www.w3.org/1999/xlink" width="90.75" height="90.5" viewBox="0 0 90.75 90.5">
  <metadata><?xpacket begin="﻿" id="W5M0MpCehiHzreSzNTczkc9d"?>
<x:xmpmeta xmlns:x="adobe:ns:meta/" x:xmptk="Adobe XMP Core 5.6-c138 79.159824, 2016/09/14-01:09:01        ">
   <rdf:RDF xmlns:rdf="http://www.w3.org/1999/02/22-rdf-syntax-ns#">
      <rdf:Description rdf:about=""/>
   </rdf:RDF>
</x:xmpmeta>
                                                                                                    
                                                                                                    
                                                                                                    
                                                                                                    
                                                                                                    
                                                                                                    
                                                                                                    
                                                                                                    
                                                                                                    
                                                                                                    
                                                                                                    
                                                                                                    
                                                                                                    
                                                                                                    
                                                                                                    
                                                                                                    
                                                                                                    
                                                                                                    
                                                                                                    
                                                                                                    
                           
<?xpacket end="w"?></metadata>
<defs>
    <style>
      .cls-1 {
        fill: #ed676b;
        filter: url(#filter);
      }

      .cls-1, .cls-2 {
        fill-rule: evenodd;
      }

      .cls-2 {
        fill: #35363a;
      }
    </style>
    <filter id="filter" x="536" y="174.75" width="90.75" height="90.5" filterUnits="userSpaceOnUse">
      <feGaussianBlur result="blur" in="SourceAlpha"/>
      <feFlood result="flood" flood-color="#fff" flood-opacity="0.1"/>
      <feComposite result="composite" operator="out" in2="blur"/>
      <feOffset result="offset" dy="1"/>
      <feComposite result="composite-2" operator="in" in2="SourceAlpha"/>
      <feBlend result="blend" in2="SourceGraphic"/>
    </filter>
  </defs>
  <path id="container" class="cls-1" d="M581.5,174.751c35.575,0,45.249,9.39,45.249,45.755,0,35.575-9.927,44.744-45.5,44.744-36.365,0-45.249-9.422-45.249-45C536,183.889,545.137,174.751,581.5,174.751Z" transform="translate(-536 -174.75)"/>
  <path id="Pinterest-2" data-name="Pinterest" class="cls-2" d="M596.364,214.432c0-6.9-5.847-13.334-14.735-13.334-11.058,0-16.634,7.928-16.634,14.54,0,4,1.515,7.565,4.766,8.892a0.8,0.8,0,0,0,1.165-.583c0.108-.408.362-1.439,0.476-1.868a1.131,1.131,0,0,0-.335-1.3,6.711,6.711,0,0,1-1.536-4.564A11.023,11.023,0,0,1,580.99,205.07c6.251,0,9.685,3.819,9.685,8.92,0,6.711-2.97,12.375-7.38,12.375a3.6,3.6,0,0,1-3.673-4.483c0.7-2.949,2.055-6.131,2.055-8.26,0-1.905-1.023-3.494-3.139-3.494-2.489,0-4.489,2.575-4.489,6.025a8.957,8.957,0,0,0,.742,3.683L571.8,232.519a26.1,26.1,0,0,0-.07,8.845,0.309,0.309,0,0,0,.553.133,24.864,24.864,0,0,0,4.2-7.617c0.285-1.035,1.637-6.4,1.637-6.4,0.809,1.543,3.172,2.9,5.686,2.9,7.482,0,12.558-6.822,12.558-15.952" transform="translate(-536 -174.75)"/>
</svg>
