<svg id="Sharing" xmlns="http://www.w3.org/2000/svg" xmlns:xlink="http://www.w3.org/1999/xlink" width="90.75" height="90.5" viewBox="0 0 90.75 90.5">
  <metadata><?xpacket begin="﻿" id="W5M0MpCehiHzreSzNTczkc9d"?>
<x:xmpmeta xmlns:x="adobe:ns:meta/" x:xmptk="Adobe XMP Core 5.6-c138 79.159824, 2016/09/14-01:09:01        ">
   <rdf:RDF xmlns:rdf="http://www.w3.org/1999/02/22-rdf-syntax-ns#">
      <rdf:Description rdf:about=""/>
   </rdf:RDF>
</x:xmpmeta>
                                                                                                    
                                                                                                    
                                                                                                    
                                                                                                    
                                                                                                    
                                                                                                    
                                                                                                    
                                                                                                    
                                                                                                    
                                                                                                    
                                                                                                    
                                                                                                    
                                                                                                    
                                                                                                    
                                                                                                    
                                                                                                    
                                                                                                    
                                                                                                    
                                                                                                    
                                                                                                    
                           
<?xpacket end="w"?></metadata>
<defs>
    <style>
      .cls-1 {
        fill: #ed676b;
        filter: url(#filter);
      }

      .cls-1, .cls-2 {
        fill-rule: evenodd;
      }

      .cls-2 {
        fill: #35363a;
      }
    </style>
    <filter id="filter" x="896" y="294.75" width="90.75" height="90.5" filterUnits="userSpaceOnUse">
      <feGaussianBlur result="blur" in="SourceAlpha"/>
      <feFlood result="flood" flood-color="#fff" flood-opacity="0.1"/>
      <feComposite result="composite" operator="out" in2="blur"/>
      <feOffset result="offset" dy="1"/>
      <feComposite result="composite-2" operator="in" in2="SourceAlpha"/>
      <feBlend result="blend" in2="SourceGraphic"/>
    </filter>
  </defs>
  <path id="container" class="cls-1" d="M941.5,294.751c35.575,0,45.249,9.39,45.249,45.755,0,35.575-9.927,44.744-45.5,44.744-36.365,0-45.249-9.422-45.249-45C896,303.889,905.137,294.751,941.5,294.751Z" transform="translate(-896 -294.75)"/>
  <path id="icon" class="cls-2" d="M941.163,326.3a6.467,6.467,0,0,0,.24,1.742l-9.83,6.785a7.44,7.44,0,0,0-4.359-1.389,6.818,6.818,0,1,0,0,13.614,7.44,7.44,0,0,0,4.359-1.389l9.83,6.785a6.467,6.467,0,0,0-.24,1.742,7.21,7.21,0,1,0,7.2-6.807,7.5,7.5,0,0,0-3.666.948l-10.351-7.146a6.628,6.628,0,0,0,0-1.88l10.351-7.146a7.5,7.5,0,0,0,3.666.949A6.819,6.819,0,1,0,941.163,326.3Z" transform="translate(-896 -294.75)"/>
</svg>
