<svg id="Skype" xmlns="http://www.w3.org/2000/svg" xmlns:xlink="http://www.w3.org/1999/xlink" width="90.75" height="90.5" viewBox="0 0 90.75 90.5">
  <metadata><?xpacket begin="﻿" id="W5M0MpCehiHzreSzNTczkc9d"?>
<x:xmpmeta xmlns:x="adobe:ns:meta/" x:xmptk="Adobe XMP Core 5.6-c138 79.159824, 2016/09/14-01:09:01        ">
   <rdf:RDF xmlns:rdf="http://www.w3.org/1999/02/22-rdf-syntax-ns#">
      <rdf:Description rdf:about=""/>
   </rdf:RDF>
</x:xmpmeta>
                                                                                                    
                                                                                                    
                                                                                                    
                                                                                                    
                                                                                                    
                                                                                                    
                                                                                                    
                                                                                                    
                                                                                                    
                                                                                                    
                                                                                                    
                                                                                                    
                                                                                                    
                                                                                                    
                                                                                                    
                                                                                                    
                                                                                                    
                                                                                                    
                                                                                                    
                                                                                                    
                           
<?xpacket end="w"?></metadata>
<defs>
    <style>
      .cls-1 {
        fill: #82b0f8;
        filter: url(#filter);
      }

      .cls-1, .cls-2 {
        fill-rule: evenodd;
      }

      .cls-2 {
        fill: #35363a;
      }
    </style>
    <filter id="filter" x="776" y="414.75" width="90.75" height="90.5" filterUnits="userSpaceOnUse">
      <feGaussianBlur result="blur" in="SourceAlpha"/>
      <feFlood result="flood" flood-color="#fff" flood-opacity="0.1"/>
      <feComposite result="composite" operator="out" in2="blur"/>
      <feOffset result="offset" dy="1"/>
      <feComposite result="composite-2" operator="in" in2="SourceAlpha"/>
      <feBlend result="blend" in2="SourceGraphic"/>
    </filter>
  </defs>
  <path id="container" class="cls-1" d="M821.5,414.751c35.575,0,45.249,9.39,45.249,45.755,0,35.575-9.927,44.744-45.5,44.744-36.365,0-45.249-9.422-45.249-45C776,423.889,785.137,414.751,821.5,414.751Z" transform="translate(-776 -414.75)"/>
  <path id="icon" class="cls-2" d="M840.372,465.5a21.284,21.284,0,0,0,.461-4.413c0-11.357-8.948-20.564-19.989-20.564a19.558,19.558,0,0,0-3.416.3A11.305,11.305,0,0,0,811.259,439a11.762,11.762,0,0,0-11.59,11.925,12.118,12.118,0,0,0,1.6,6.032,21.214,21.214,0,0,0-.406,4.134c0,11.354,8.951,20.564,19.986,20.564a19.374,19.374,0,0,0,3.662-.346,11.243,11.243,0,0,0,5.476,1.416A11.761,11.761,0,0,0,841.575,470.8a12.184,12.184,0,0,0-1.2-5.3m-9.276,5.415a9.127,9.127,0,0,1-4.06,3.171,15.883,15.883,0,0,1-6.245,1.129,14.853,14.853,0,0,1-7.155-1.545,9.468,9.468,0,0,1-3.293-3,6.682,6.682,0,0,1-1.279-3.717,2.613,2.613,0,0,1,.833-1.941,2.9,2.9,0,0,1,2.087-.8,2.6,2.6,0,0,1,1.761.627,4.687,4.687,0,0,1,1.169,1.761,10.456,10.456,0,0,0,1.148,2.092,4.426,4.426,0,0,0,1.677,1.336,6.761,6.761,0,0,0,2.9.532,6.866,6.866,0,0,0,4.024-1.081,3.038,3.038,0,0,0,1.48-2.566,2.553,2.553,0,0,0-.773-1.949,5.4,5.4,0,0,0-2.133-1.209c-0.909-.293-2.143-0.608-3.666-0.936a28.652,28.652,0,0,1-5.238-1.611,8.65,8.65,0,0,1-3.434-2.584,6.538,6.538,0,0,1-1.293-4.121,6.792,6.792,0,0,1,1.357-4.161,8.479,8.479,0,0,1,3.879-2.773,16.587,16.587,0,0,1,5.866-.95,15.5,15.5,0,0,1,4.665.63,10.227,10.227,0,0,1,3.3,1.693,7.389,7.389,0,0,1,1.947,2.245,5.083,5.083,0,0,1,.624,2.349,2.843,2.843,0,0,1-.82,1.984,2.708,2.708,0,0,1-2.053.882,2.493,2.493,0,0,1-1.72-.55,6.662,6.662,0,0,1-1.193-1.633,6.712,6.712,0,0,0-1.792-2.286,5.509,5.509,0,0,0-3.338-.793,6.138,6.138,0,0,0-3.465.879A2.367,2.367,0,0,0,815.627,454a1.833,1.833,0,0,0,.4,1.195,3.626,3.626,0,0,0,1.191.93,8.732,8.732,0,0,0,1.608.643c0.557,0.157,1.487.392,2.766,0.7,1.618,0.356,3.1.758,4.416,1.188a14.082,14.082,0,0,1,3.423,1.606,6.979,6.979,0,0,1,2.252,2.449,7.527,7.527,0,0,1,.81,3.621,7.911,7.911,0,0,1-1.4,4.592" transform="translate(-776 -414.75)"/>
</svg>
