<svg id="Smashing_Magazine" data-name="Smashing Magazine" xmlns="http://www.w3.org/2000/svg" xmlns:xlink="http://www.w3.org/1999/xlink" width="90.75" height="90.5" viewBox="0 0 90.75 90.5">
  <metadata><?xpacket begin="﻿" id="W5M0MpCehiHzreSzNTczkc9d"?>
<x:xmpmeta xmlns:x="adobe:ns:meta/" x:xmptk="Adobe XMP Core 5.6-c138 79.159824, 2016/09/14-01:09:01        ">
   <rdf:RDF xmlns:rdf="http://www.w3.org/1999/02/22-rdf-syntax-ns#">
      <rdf:Description rdf:about=""/>
   </rdf:RDF>
</x:xmpmeta>
                                                                                                    
                                                                                                    
                                                                                                    
                                                                                                    
                                                                                                    
                                                                                                    
                                                                                                    
                                                                                                    
                                                                                                    
                                                                                                    
                                                                                                    
                                                                                                    
                                                                                                    
                                                                                                    
                                                                                                    
                                                                                                    
                                                                                                    
                                                                                                    
                                                                                                    
                                                                                                    
                           
<?xpacket end="w"?></metadata>
<defs>
    <style>
      .cls-1 {
        fill: #f4b367;
        filter: url(#filter);
      }

      .cls-1, .cls-2 {
        fill-rule: evenodd;
      }

      .cls-2 {
        fill: #35363a;
      }
    </style>
    <filter id="filter" x="296" y="534.75" width="90.75" height="90.5" filterUnits="userSpaceOnUse">
      <feGaussianBlur result="blur" in="SourceAlpha"/>
      <feFlood result="flood" flood-color="#fff" flood-opacity="0.1"/>
      <feComposite result="composite" operator="out" in2="blur"/>
      <feOffset result="offset" dy="1"/>
      <feComposite result="composite-2" operator="in" in2="SourceAlpha"/>
      <feBlend result="blend" in2="SourceGraphic"/>
    </filter>
  </defs>
  <path id="container" class="cls-1" d="M341.5,534.751c35.574,0,45.249,9.39,45.249,45.755,0,35.575-9.927,44.744-45.5,44.744-36.365,0-45.249-9.422-45.249-45C296,543.889,305.137,534.751,341.5,534.751Z" transform="translate(-296 -534.75)"/>
  <path id="icon" class="cls-2" d="M338.972,583.643c-5.979-2.257-11-6.288-11.333-11.539a11.487,11.487,0,0,1,2.811-8.737l-8.895,2.123a3.332,3.332,0,0,0-2.464,4.011l7.4,30.945a3.325,3.325,0,0,0,4.01,2.461L334.31,602a43.43,43.43,0,0,1-6.482-2.732l3.55-8.052a16.621,16.621,0,0,0,10.176,3.722c6,0,8.668-7.041-2.582-11.293m24.935,7.856-7.4-30.945a3.33,3.33,0,0,0-4.012-2.461l-6.372,1.525a27.832,27.832,0,0,1,8.388,2.82l-2.775,7.694s-2.31-2.581-8.5-2.895c-5.886-.3-9.163,6.07,2.32,9.826,8.792,2.874,11.6,8.417,11.459,13.54a12.289,12.289,0,0,1-2.09,6.466l6.523-1.558a3.328,3.328,0,0,0,2.458-4.012" transform="translate(-296 -534.75)"/>
</svg>
