<svg id="SoundCloud" xmlns="http://www.w3.org/2000/svg" xmlns:xlink="http://www.w3.org/1999/xlink" width="90.75" height="90.5" viewBox="0 0 90.75 90.5">
  <metadata><?xpacket begin="﻿" id="W5M0MpCehiHzreSzNTczkc9d"?>
<x:xmpmeta xmlns:x="adobe:ns:meta/" x:xmptk="Adobe XMP Core 5.6-c138 79.159824, 2016/09/14-01:09:01        ">
   <rdf:RDF xmlns:rdf="http://www.w3.org/1999/02/22-rdf-syntax-ns#">
      <rdf:Description rdf:about=""/>
   </rdf:RDF>
</x:xmpmeta>
                                                                                                    
                                                                                                    
                                                                                                    
                                                                                                    
                                                                                                    
                                                                                                    
                                                                                                    
                                                                                                    
                                                                                                    
                                                                                                    
                                                                                                    
                                                                                                    
                                                                                                    
                                                                                                    
                                                                                                    
                                                                                                    
                                                                                                    
                                                                                                    
                                                                                                    
                                                                                                    
                           
<?xpacket end="w"?></metadata>
<defs>
    <style>
      .cls-1 {
        fill: #f4b367;
        filter: url(#filter);
      }

      .cls-1, .cls-2 {
        fill-rule: evenodd;
      }

      .cls-2 {
        fill: #35363a;
      }
    </style>
    <filter id="filter" x="416" y="174.75" width="90.75" height="90.5" filterUnits="userSpaceOnUse">
      <feGaussianBlur result="blur" in="SourceAlpha"/>
      <feFlood result="flood" flood-color="#fff" flood-opacity="0.1"/>
      <feComposite result="composite" operator="out" in2="blur"/>
      <feOffset result="offset" dy="1"/>
      <feComposite result="composite-2" operator="in" in2="SourceAlpha"/>
      <feBlend result="blend" in2="SourceGraphic"/>
    </filter>
  </defs>
  <path id="container" class="cls-1" d="M461.5,174.751c35.575,0,45.249,9.39,45.249,45.755,0,35.575-9.927,44.744-45.5,44.744-36.365,0-45.249-9.422-45.249-45C416,183.889,425.137,174.751,461.5,174.751Z" transform="translate(-416 -174.75)"/>
  <path id="icon" class="cls-2" d="M439.515,228.914l0.74-3.156-0.74-3.264a0.63,0.63,0,0,0-.865,0L438,225.758l0.653,3.156a0.626,0.626,0,0,0,.862,0m4.624,1.752,0.627-4.879-0.627-7.549a0.493,0.493,0,0,0-.537-0.344,0.485,0.485,0,0,0-.535.343l-0.557,7.55,0.557,4.879a0.486,0.486,0,0,0,.535.342,0.492,0.492,0,0,0,.537-0.342m4.614-.077,0.523-4.8-0.523-10.053a0.576,0.576,0,0,0-.634-0.421,0.569,0.569,0,0,0-.633.421l-0.465,10.053,0.465,4.8a0.689,0.689,0,0,0,1.267,0m4.606-.072,0.428-4.726-0.428-10.126a0.772,0.772,0,0,0-1.446,0l-0.382,10.126,0.384,4.726a0.772,0.772,0,0,0,1.444,0m4.6-.06,0.339-4.663-0.339-11.611a0.851,0.851,0,0,0-1.613,0l-0.3,11.607s0.3,4.664.3,4.664a0.853,0.853,0,0,0,1.613,0m3.221,0.577,16.114,0.01a5.626,5.626,0,1,0,0-11.245,5.921,5.921,0,0,0-2.248.438,10.132,10.132,0,0,0-10.217-9.04,10.671,10.671,0,0,0-3.716.672,0.645,0.645,0,0,0-.56.659v17.841a0.686,0.686,0,0,0,.627.665" transform="translate(-416 -174.75)"/>
</svg>
