<svg id="Spotify" xmlns="http://www.w3.org/2000/svg" xmlns:xlink="http://www.w3.org/1999/xlink" width="90.75" height="90.5" viewBox="0 0 90.75 90.5">
  <metadata><?xpacket begin="﻿" id="W5M0MpCehiHzreSzNTczkc9d"?>
<x:xmpmeta xmlns:x="adobe:ns:meta/" x:xmptk="Adobe XMP Core 5.6-c138 79.159824, 2016/09/14-01:09:01        ">
   <rdf:RDF xmlns:rdf="http://www.w3.org/1999/02/22-rdf-syntax-ns#">
      <rdf:Description rdf:about=""/>
   </rdf:RDF>
</x:xmpmeta>
                                                                                                    
                                                                                                    
                                                                                                    
                                                                                                    
                                                                                                    
                                                                                                    
                                                                                                    
                                                                                                    
                                                                                                    
                                                                                                    
                                                                                                    
                                                                                                    
                                                                                                    
                                                                                                    
                                                                                                    
                                                                                                    
                                                                                                    
                                                                                                    
                                                                                                    
                                                                                                    
                           
<?xpacket end="w"?></metadata>
<defs>
    <style>
      .cls-1 {
        fill: #3de397;
        filter: url(#filter);
      }

      .cls-1, .cls-2 {
        fill-rule: evenodd;
      }

      .cls-2 {
        fill: #35363a;
      }
    </style>
    <filter id="filter" x="176" y="414.75" width="90.75" height="90.5" filterUnits="userSpaceOnUse">
      <feGaussianBlur result="blur" in="SourceAlpha"/>
      <feFlood result="flood" flood-color="#fff" flood-opacity="0.1"/>
      <feComposite result="composite" operator="out" in2="blur"/>
      <feOffset result="offset" dy="1"/>
      <feComposite result="composite-2" operator="in" in2="SourceAlpha"/>
      <feBlend result="blend" in2="SourceGraphic"/>
    </filter>
  </defs>
  <path id="container" class="cls-1" d="M221.5,414.751c35.574,0,45.249,9.39,45.249,45.755,0,35.575-9.927,44.744-45.5,44.744-36.365,0-45.249-9.422-45.249-45C176,423.889,185.137,414.751,221.5,414.751Z" transform="translate(-176 -414.75)"/>
  <path id="icon" class="cls-2" d="M221.5,439.5a21.5,21.5,0,0,0-16.168,35.668,17.582,17.582,0,0,1,13.259-5.079c6.745,0.218,12.069,3.413,15.121,8.607A21.5,21.5,0,0,0,221.5,439.5m10.512,29.164a1.313,1.313,0,0,1-1.812.443c-4.98-3.041-11.243-3.729-18.622-2.046a1.319,1.319,0,0,1-.585-2.572c8.072-1.845,15-1.047,20.582,2.36a1.32,1.32,0,0,1,.437,1.815m2.591-6.1a1.648,1.648,0,0,1-2.27.54c-5.693-3.5-14.38-4.514-21.118-2.468a1.653,1.653,0,0,1-.964-3.162c7.7-2.337,17.268-1.206,23.811,2.814a1.651,1.651,0,0,1,.541,2.276m0.224-6.319c-6.829-4.06-18.1-4.43-24.619-2.452A1.981,1.981,0,1,1,209.057,450c7.488-2.275,19.932-1.835,27.794,2.834a1.983,1.983,0,1,1-2.024,3.41m-16.375,20.268a8.9,8.9,0,0,0-7.382,3.289,21.561,21.561,0,0,0,15.72,2.038,9.059,9.059,0,0,0-8.338-5.327" transform="translate(-176 -414.75)"/>
</svg>
