<svg id="Twitter" xmlns="http://www.w3.org/2000/svg" xmlns:xlink="http://www.w3.org/1999/xlink" width="90.75" height="90.5" viewBox="0 0 90.75 90.5">
  <metadata><?xpacket begin="﻿" id="W5M0MpCehiHzreSzNTczkc9d"?>
<x:xmpmeta xmlns:x="adobe:ns:meta/" x:xmptk="Adobe XMP Core 5.6-c138 79.159824, 2016/09/14-01:09:01        ">
   <rdf:RDF xmlns:rdf="http://www.w3.org/1999/02/22-rdf-syntax-ns#">
      <rdf:Description rdf:about=""/>
   </rdf:RDF>
</x:xmpmeta>
                                                                                                    
                                                                                                    
                                                                                                    
                                                                                                    
                                                                                                    
                                                                                                    
                                                                                                    
                                                                                                    
                                                                                                    
                                                                                                    
                                                                                                    
                                                                                                    
                                                                                                    
                                                                                                    
                                                                                                    
                                                                                                    
                                                                                                    
                                                                                                    
                                                                                                    
                                                                                                    
                           
<?xpacket end="w"?></metadata>
<defs>
    <style>
      .cls-1 {
        fill: #81e0fe;
        filter: url(#filter);
      }

      .cls-1, .cls-2 {
        fill-rule: evenodd;
      }

      .cls-2 {
        fill: #35363a;
      }
    </style>
    <filter id="filter" x="56" y="54.75" width="90.75" height="90.5" filterUnits="userSpaceOnUse">
      <feGaussianBlur result="blur" in="SourceAlpha"/>
      <feFlood result="flood" flood-color="#fff" flood-opacity="0.1"/>
      <feComposite result="composite" operator="out" in2="blur"/>
      <feOffset result="offset" dy="1"/>
      <feComposite result="composite-2" operator="in" in2="SourceAlpha"/>
      <feBlend result="blend" in2="SourceGraphic"/>
    </filter>
  </defs>
  <path id="container" class="cls-1" d="M101.5,54.751c35.575,0,45.249,9.39,45.249,45.755,0,35.575-9.927,44.744-45.5,44.744-36.365,0-45.249-9.422-45.249-45C56,63.889,65.137,54.751,101.5,54.751Z" transform="translate(-56 -54.75)"/>
  <path id="icon" class="cls-2" d="M122.533,89.038a17.16,17.16,0,0,1-4.9,1.337,8.52,8.52,0,0,0,3.75-4.7,17.1,17.1,0,0,1-5.417,2.059,8.523,8.523,0,0,0-14.536,7.744,24.253,24.253,0,0,1-17.582-8.871,8.475,8.475,0,0,0,2.64,11.334,8.53,8.53,0,0,1-3.863-1.062v0.107a8.509,8.509,0,0,0,6.843,8.327,8.623,8.623,0,0,1-2.248.3,8.487,8.487,0,0,1-1.6-.153,8.535,8.535,0,0,0,7.968,5.9,17.169,17.169,0,0,1-10.6,3.634,17.777,17.777,0,0,1-2.035-.117,24.232,24.232,0,0,0,13.077,3.814c15.691,0,24.271-12.938,24.271-24.157,0-.369-0.009-0.733-0.025-1.1a17.292,17.292,0,0,0,4.257-4.394v0Z" transform="translate(-56 -54.75)"/>
</svg>
