<svg id="Yelp" xmlns="http://www.w3.org/2000/svg" xmlns:xlink="http://www.w3.org/1999/xlink" width="90.75" height="90.5" viewBox="0 0 90.75 90.5">
  <metadata><?xpacket begin="﻿" id="W5M0MpCehiHzreSzNTczkc9d"?>
<x:xmpmeta xmlns:x="adobe:ns:meta/" x:xmptk="Adobe XMP Core 5.6-c138 79.159824, 2016/09/14-01:09:01        ">
   <rdf:RDF xmlns:rdf="http://www.w3.org/1999/02/22-rdf-syntax-ns#">
      <rdf:Description rdf:about=""/>
   </rdf:RDF>
</x:xmpmeta>
                                                                                                    
                                                                                                    
                                                                                                    
                                                                                                    
                                                                                                    
                                                                                                    
                                                                                                    
                                                                                                    
                                                                                                    
                                                                                                    
                                                                                                    
                                                                                                    
                                                                                                    
                                                                                                    
                                                                                                    
                                                                                                    
                                                                                                    
                                                                                                    
                                                                                                    
                                                                                                    
                           
<?xpacket end="w"?></metadata>
<defs>
    <style>
      .cls-1 {
        fill: #ed676b;
        filter: url(#filter);
      }

      .cls-1, .cls-2 {
        fill-rule: evenodd;
      }

      .cls-2 {
        fill: #35363a;
      }
    </style>
    <filter id="filter" x="656" y="414.75" width="90.75" height="90.5" filterUnits="userSpaceOnUse">
      <feGaussianBlur result="blur" in="SourceAlpha"/>
      <feFlood result="flood" flood-color="#fff" flood-opacity="0.1"/>
      <feComposite result="composite" operator="out" in2="blur"/>
      <feOffset result="offset" dy="1"/>
      <feComposite result="composite-2" operator="in" in2="SourceAlpha"/>
      <feBlend result="blend" in2="SourceGraphic"/>
    </filter>
  </defs>
  <path id="container" class="cls-1" d="M701.5,414.751c35.575,0,45.249,9.39,45.249,45.755,0,35.575-9.927,44.744-45.5,44.744-36.365,0-45.249-9.422-45.249-45C656,423.889,665.137,414.751,701.5,414.751Z" transform="translate(-656 -414.75)"/>
  <path id="icon" class="cls-2" d="M705.007,466.809c-0.708.714-.109,2.014-0.109,2.014l5.333,8.906a2.981,2.981,0,0,0,1.635,1.173,2.828,2.828,0,0,0,1.515-.625l4.216-6.028a3.637,3.637,0,0,0,.435-1.426c0.015-.947-1.413-1.207-1.413-1.207l-9.982-3.2A1.814,1.814,0,0,0,705.007,466.809ZM704.5,462.32c0.511,0.866,1.92.613,1.92,0.613l9.96-2.911a2.994,2.994,0,0,0,1.551-1.287,2.84,2.84,0,0,0-.224-1.625l-4.759-5.606a1.717,1.717,0,0,0-1.269-.78,1.869,1.869,0,0,0-1.524,1.061l-5.628,8.856A1.816,1.816,0,0,0,704.5,462.32Zm-4.706-3.453c1.173-.288,1.36-1.992,1.36-1.992l-0.08-14.181s-0.177-1.749-.963-2.222a1.866,1.866,0,0,0-1.951-.307l-8.269,3.074a2.561,2.561,0,0,0-1.232.943c-0.6.958,0.612,2.36,0.612,2.36l8.595,11.715A2.2,2.2,0,0,0,699.8,458.867Zm-2.041,5.738a2.3,2.3,0,0,0-1.314-1.75l-8.888-4.49a2.906,2.906,0,0,0-1.957-.164,1.928,1.928,0,0,0-.966,1.276L684.05,466.6a4.255,4.255,0,0,0,.233,1.8c0.454,0.8,1.945.242,1.945,0.242l10.376-2.293A1.614,1.614,0,0,0,697.754,464.605Zm2.58,3.846a2.038,2.038,0,0,0-1.957.491l-6.948,7.649a2.935,2.935,0,0,0-.646,1.887,1.852,1.852,0,0,0,1.038,1.244l6.978,2.2a3.668,3.668,0,0,0,1.486-.01c0.909-.262.741-1.687,0.741-1.687l0.158-10.356A1.77,1.77,0,0,0,700.334,468.451Z" transform="translate(-656 -414.75)"/>
</svg>
