<svg id="YouTube" xmlns="http://www.w3.org/2000/svg" xmlns:xlink="http://www.w3.org/1999/xlink" width="90.75" height="90.5" viewBox="0 0 90.75 90.5">
  <metadata><?xpacket begin="﻿" id="W5M0MpCehiHzreSzNTczkc9d"?>
<x:xmpmeta xmlns:x="adobe:ns:meta/" x:xmptk="Adobe XMP Core 5.6-c138 79.159824, 2016/09/14-01:09:01        ">
   <rdf:RDF xmlns:rdf="http://www.w3.org/1999/02/22-rdf-syntax-ns#">
      <rdf:Description rdf:about=""/>
   </rdf:RDF>
</x:xmpmeta>
                                                                                                    
                                                                                                    
                                                                                                    
                                                                                                    
                                                                                                    
                                                                                                    
                                                                                                    
                                                                                                    
                                                                                                    
                                                                                                    
                                                                                                    
                                                                                                    
                                                                                                    
                                                                                                    
                                                                                                    
                                                                                                    
                                                                                                    
                                                                                                    
                                                                                                    
                                                                                                    
                           
<?xpacket end="w"?></metadata>
<defs>
    <style>
      .cls-1 {
        fill: #ed676b;
        filter: url(#filter);
      }

      .cls-1, .cls-2 {
        fill-rule: evenodd;
      }

      .cls-2 {
        fill: #35363a;
      }
    </style>
    <filter id="filter" x="176" y="294.75" width="90.75" height="90.5" filterUnits="userSpaceOnUse">
      <feGaussianBlur result="blur" in="SourceAlpha"/>
      <feFlood result="flood" flood-color="#fff" flood-opacity="0.1"/>
      <feComposite result="composite" operator="out" in2="blur"/>
      <feOffset result="offset" dy="1"/>
      <feComposite result="composite-2" operator="in" in2="SourceAlpha"/>
      <feBlend result="blend" in2="SourceGraphic"/>
    </filter>
  </defs>
  <path id="container" class="cls-1" d="M221.5,294.751c35.574,0,45.249,9.39,45.249,45.755,0,35.575-9.927,44.744-45.5,44.744-36.365,0-45.249-9.422-45.249-45C176,303.889,185.137,294.751,221.5,294.751Z" transform="translate(-176 -294.75)"/>
  <path id="icon" class="cls-2" d="M239.583,357.21a5.578,5.578,0,0,1-5.609,5.541q-6.631.275-13.558,0.257-6.919.012-13.557-.257a5.578,5.578,0,0,1-5.61-5.541q-0.276-3.635-.258-7.268-0.014-3.633.258-7.268a5.578,5.578,0,0,1,5.61-5.541q6.631-.277,13.557-0.257,6.919-.012,13.558.257a5.578,5.578,0,0,1,5.609,5.541c0.185,2.422.267,4.846,0.259,7.268C239.85,352.364,239.768,354.787,239.583,357.21Zm-27.435-16.283H204v2.493h2.747V358.1H209.4V343.42h2.747v-2.493Zm6.7,4.5h-2.357v9.616a3.3,3.3,0,0,1-.728.682,1.3,1.3,0,0,1-.658.265,0.559,0.559,0,0,1-.481-0.2,1.131,1.131,0,0,1-.147-0.652v-9.71h-2.358v10.587a2.859,2.859,0,0,0,.416,1.7,1.425,1.425,0,0,0,1.232.566,2.753,2.753,0,0,0,1.366-.4,5.229,5.229,0,0,0,1.358-1.179v1.4h2.357V345.431Zm9.074,3.016a3.973,3.973,0,0,0-.591-2.362,1.973,1.973,0,0,0-1.707-.813,2.164,2.164,0,0,0-1.084.3,3.6,3.6,0,0,0-1.012.879v-5.527h-2.38V358.1h2.38v-0.975a3.114,3.114,0,0,0,1.007.857,2.66,2.66,0,0,0,1.233.279,1.9,1.9,0,0,0,1.6-.717,3.34,3.34,0,0,0,.553-2.068v-7.027Zm8.713,5.123h-2.426v0.881a2.835,2.835,0,0,1-.235,1.446,0.941,0.941,0,0,1-.818.328,0.852,0.852,0,0,1-.8-0.388,2.873,2.873,0,0,1-.233-1.386v-2.389h4.508v-3.225a3.979,3.979,0,0,0-.87-2.764,3.171,3.171,0,0,0-2.484-.962,3.422,3.422,0,0,0-2.582,1.039,3.718,3.718,0,0,0-1,2.687v5.686a4.229,4.229,0,0,0,.91,2.872,3.125,3.125,0,0,0,2.491,1.045,3.382,3.382,0,0,0,2.647-.983,4.266,4.266,0,0,0,.887-2.934V353.57Zm-4.508-4.757a2,2,0,0,1,.245-1.139,0.924,0.924,0,0,1,.806-0.344,0.9,0.9,0,0,1,.786.344,2.019,2.019,0,0,1,.245,1.139V350.1h-2.082v-1.283Zm-7.471,7.455a1.227,1.227,0,0,1-.57-0.135,2.065,2.065,0,0,1-.558-0.445v-7.895a1.706,1.706,0,0,1,.486-0.384,1.084,1.084,0,0,1,.5-0.127,0.858,0.858,0,0,1,.731.334,1.6,1.6,0,0,1,.251.975v6.538a1.46,1.46,0,0,1-.2.874A0.748,0.748,0,0,1,224.652,356.268Zm5.483-23.047a5.125,5.125,0,0,1-1.356,1.177,2.736,2.736,0,0,1-1.368.4,1.434,1.434,0,0,1-1.233-.565,2.853,2.853,0,0,1-.413-1.7V321.953h2.356v9.71a1.114,1.114,0,0,0,.149.651,0.555,0.555,0,0,0,.478.2,1.256,1.256,0,0,0,.657-0.269,3.149,3.149,0,0,0,.73-0.68v-9.614h2.356v12.666h-2.356v-1.4Zm-9.811,1.719a3.292,3.292,0,0,1-2.474-.954,3.532,3.532,0,0,1-.93-2.57v-6.567a3.023,3.023,0,0,1,.952-2.343,3.645,3.645,0,0,1,2.56-.873,3.271,3.271,0,0,1,2.4.921,3.184,3.184,0,0,1,.934,2.365v6.542a3.478,3.478,0,0,1-.916,2.552A3.394,3.394,0,0,1,220.324,334.94Zm1.037-10.187a0.847,0.847,0,0,0-.289-0.668,1.084,1.084,0,0,0-.753-0.257,0.967,0.967,0,0,0-.7.257,0.866,0.866,0,0,0-.271.668v6.9a1.17,1.17,0,0,0,.252.808,0.906,0.906,0,0,0,.721.284,1.013,1.013,0,0,0,.76-0.289,1.111,1.111,0,0,0,.282-0.8v-6.9Zm-7.408,9.866H211.3v-6.8l-3.159-10.366h2.673l1.722,6.865H212.7l1.642-6.865h2.7l-3.089,10.045v7.125Z" transform="translate(-176 -294.75)"/>
</svg>
